<svg version="1.1" id="Layer_1" xmlns="http://www.w3.org/2000/svg" xmlns:xlink="http://www.w3.org/1999/xlink" x="0px" y="0px"
	 width="100%" viewBox="0 0 1931 858" enable-background="new 0 0 1931 858" xml:space="preserve">
<path fill="#000000" opacity="1.000000" stroke="none" 
	d="
M1311.000000,859.000000 
	C874.000000,859.000000 437.500000,859.000000 1.000000,859.000000 
	C1.000000,573.000000 1.000000,287.000000 1.000000,1.000000 
	C644.666687,1.000000 1288.333374,1.000000 1932.000000,1.000000 
	C1932.000000,287.000000 1932.000000,573.000000 1932.000000,859.000000 
	C1725.166626,859.000000 1518.333374,859.000000 1311.000000,859.000000 
M1492.311523,437.208313 
	C1473.566895,436.410858 1455.011475,437.939667 1436.833740,442.596375 
	C1350.473511,464.720001 1287.344604,544.991699 1296.328491,642.801758 
	C1300.327637,686.341736 1318.298584,724.128662 1349.096680,755.333801 
	C1405.199707,812.178467 1485.822144,825.383057 1553.666138,797.333618 
	C1635.588013,763.463684 1681.694580,680.431396 1666.906982,592.966003 
	C1656.628174,532.169128 1622.970215,487.251465 1568.670288,458.024323 
	C1545.170288,445.375305 1519.859741,438.883087 1492.311523,437.208313 
M48.966740,246.439331 
	C49.835194,266.679413 54.100704,286.257996 61.755260,304.932953 
	C77.156754,342.508270 101.781479,372.570831 136.275055,394.344452 
	C161.693954,410.389832 189.547424,419.716156 219.250366,422.737244 
	C231.672714,424.000671 244.460403,422.954834 256.970917,421.777985 
	C277.299316,419.865784 296.649872,413.833160 315.146881,405.227722 
	C348.225067,389.838562 374.233887,366.457733 393.860779,335.734192 
	C412.303772,306.864044 421.349274,275.170990 422.898651,241.196915 
	C423.198853,234.613495 422.738342,227.926987 421.920410,221.376480 
	C420.582520,210.661301 419.399078,199.839294 416.849365,189.379547 
	C409.556091,159.460190 395.171448,133.043701 374.548462,110.275002 
	C357.853821,91.843430 338.080353,77.347328 315.444733,66.717369 
	C292.794281,56.080452 269.034576,50.149570 244.133957,49.047287 
	C235.057419,48.645493 225.904892,49.417824 216.812256,50.029240 
	C194.951187,51.499233 174.266037,57.611717 154.562500,66.944748 
	C128.679428,79.204872 107.046173,96.763535 89.182503,119.260239 
	C75.644020,136.310028 64.922325,154.817749 58.587658,175.543671 
	C54.500237,188.917007 51.367767,202.702393 49.281631,216.525589 
	C47.856251,225.970474 48.973305,235.799026 48.966740,246.439331 
M1072.373901,57.813198 
	C1047.715576,61.220829 1030.827271,87.215546 1037.771240,111.074417 
	C1043.580078,131.032913 1059.321655,142.967972 1080.131714,142.993500 
	C1120.618896,143.043182 1161.106079,143.008835 1201.593262,143.008240 
	C1228.751343,143.007843 1255.910156,143.136185 1283.067139,142.967239 
	C1309.737305,142.801331 1329.416992,119.433319 1325.244019,93.210052 
	C1321.862061,71.956543 1303.828247,57.071308 1281.134155,57.054054 
	C1214.488647,57.003387 1147.843140,57.028534 1081.197632,57.062992 
	C1078.546509,57.064362 1075.895752,57.463894 1072.373901,57.813198 
M797.500000,143.008423 
	C815.832153,143.003296 834.168457,143.247421 852.495483,142.937958 
	C884.490601,142.397675 904.560669,107.785637 889.145264,79.839828 
	C880.665100,64.466545 867.162720,57.128956 849.842407,57.081676 
	C801.679016,56.950188 753.515015,57.035549 705.351257,57.035824 
	C687.852295,57.035927 670.352539,56.925919 652.854614,57.063805 
	C623.848145,57.292381 602.174011,84.860832 611.862793,114.088173 
	C617.547791,131.237778 633.809509,142.967926 653.008667,142.989853 
	C700.839050,143.044510 748.669556,143.008209 797.500000,143.008423 
M1771.005859,286.478577 
	C1751.877441,257.599274 1717.614868,246.783951 1686.049438,259.661102 
	C1656.303589,271.796021 1639.044800,304.380157 1645.244141,336.700775 
	C1650.185059,362.460327 1671.509033,384.782684 1696.761475,389.959839 
	C1727.052734,396.170013 1751.561890,386.607605 1769.741455,361.626862 
	C1784.807861,340.924011 1785.291382,309.645874 1771.005859,286.478577 
M446.769745,570.744995 
	C464.131012,599.432312 494.269928,611.690674 526.069702,602.998657 
	C553.894592,595.393127 574.627563,567.893738 575.150208,537.900085 
	C575.921570,493.632568 535.168457,460.178345 492.061005,469.692169 
	C446.755341,479.691132 424.584747,528.411011 446.769745,570.744995 
M1707.894897,48.671997 
	C1669.679565,51.516800 1641.616089,83.954048 1644.177368,122.319832 
	C1646.677979,159.773743 1679.636719,188.076355 1717.649048,185.774445 
	C1752.739624,183.649460 1785.053833,151.981003 1781.164429,110.022896 
	C1778.293091,79.047440 1749.429932,45.814621 1707.894897,48.671997 
M1563.546387,270.952057 
	C1567.114014,273.667328 1570.434570,276.813232 1574.290161,279.027008 
	C1596.815186,291.960236 1620.135010,292.882996 1642.746460,280.354706 
	C1665.837280,267.560883 1677.983276,247.236206 1678.428711,220.401688 
	C1679.137817,177.685730 1637.003174,138.664200 1587.753418,155.104813 
	C1538.038940,171.700577 1525.020386,234.316528 1563.546387,270.952057 
M1871.187500,260.708435 
	C1886.522949,239.230713 1888.945435,215.868408 1878.293579,192.242111 
	C1867.315063,167.891037 1847.832031,153.885605 1820.563965,151.663467 
	C1769.748169,147.522308 1729.272461,201.399399 1754.473999,251.214706 
	C1778.272095,298.255585 1840.816406,301.242432 1871.187500,260.708435 
M451.561584,783.953552 
	C471.707947,809.884949 501.179749,816.483948 527.289978,808.173584 
	C556.501465,798.876099 574.622070,773.737671 575.154724,743.827759 
	C575.938354,699.824524 535.206787,666.232483 492.408630,675.585449 
	C443.288788,686.319946 421.786560,742.448364 451.561584,783.953552 
M581.153503,702.336182 
	C586.697815,703.996948 592.141418,706.226135 597.802246,707.229126 
	C646.391418,715.838440 687.843872,671.889038 676.504761,623.960388 
	C670.271057,597.611755 647.604126,576.174438 621.708252,572.136292 
	C592.810791,567.630066 565.722839,579.755493 550.902222,603.831238 
	C529.352722,638.838013 542.753662,683.353760 581.153503,702.336182 
M471.425507,629.085144 
	C465.825500,590.732788 427.691376,564.345825 389.660187,572.507507 
	C352.921692,580.391846 330.343018,613.565002 335.901001,651.492004 
	C341.792786,691.696716 386.433685,718.653992 424.762024,705.152527 
	C457.501831,693.619507 475.594879,664.583557 471.425507,629.085144 
M1152.684204,271.179871 
	C1151.465454,272.049377 1150.218140,272.881683 1149.032227,273.793945 
	C1128.776001,289.376953 1121.748901,316.654205 1132.176392,339.180328 
	C1142.877075,362.296570 1168.424072,375.351379 1192.858765,369.572784 
	C1214.514282,364.451385 1228.946167,350.862152 1233.794434,329.151733 
	C1239.002686,305.828583 1231.572144,285.993530 1211.699585,272.416870 
	C1193.012695,259.650330 1173.106934,259.618378 1152.684204,271.179871 
M748.797791,370.695251 
	C783.355957,372.252625 810.158447,343.692780 805.825745,309.928131 
	C801.862793,279.044830 773.457825,258.612762 741.914246,263.955719 
	C713.256165,268.809937 693.667053,298.580963 699.421692,327.854218 
	C703.312439,347.645874 721.831848,368.826874 748.797791,370.695251 
z"/>
<path fill="#BBBBBB" opacity="1.000000" stroke="none" 
	d="
M1492.786133,437.248322 
	C1519.859741,438.883087 1545.170288,445.375305 1568.670288,458.024323 
	C1622.970215,487.251465 1656.628174,532.169128 1666.906982,592.966003 
	C1681.694580,680.431396 1635.588013,763.463684 1553.666138,797.333618 
	C1485.822144,825.383057 1405.199707,812.178467 1349.096680,755.333801 
	C1318.298584,724.128662 1300.327637,686.341736 1296.328491,642.801758 
	C1287.344604,544.991699 1350.473511,464.720001 1436.833740,442.596375 
	C1455.011475,437.939667 1473.566895,436.410858 1492.786133,437.248322 
M1451.656738,800.026489 
	C1475.928589,803.882263 1500.094360,803.576233 1524.068115,797.892151 
	C1597.194702,780.554199 1652.059326,718.693115 1659.973877,644.131165 
	C1664.869751,598.006775 1653.841919,555.862793 1626.342285,518.331726 
	C1575.077271,448.366455 1479.969116,425.632080 1402.515991,464.692719 
	C1330.574829,500.973694 1291.879150,579.895386 1307.317505,658.854431 
	C1321.313477,730.435974 1379.652588,787.810059 1451.656738,800.026489 
z"/>
<path fill="#BBBCBC" opacity="1.000000" stroke="none" 
	d="
M48.960205,245.947693 
	C48.973305,235.799026 47.856251,225.970474 49.281631,216.525589 
	C51.367767,202.702393 54.500237,188.917007 58.587658,175.543671 
	C64.922325,154.817749 75.644020,136.310028 89.182503,119.260239 
	C107.046173,96.763535 128.679428,79.204872 154.562500,66.944748 
	C174.266037,57.611717 194.951187,51.499233 216.812256,50.029240 
	C225.904892,49.417824 235.057419,48.645493 244.133957,49.047287 
	C269.034576,50.149570 292.794281,56.080452 315.444733,66.717369 
	C338.080353,77.347328 357.853821,91.843430 374.548462,110.275002 
	C395.171448,133.043701 409.556091,159.460190 416.849365,189.379547 
	C419.399078,199.839294 420.582520,210.661301 421.920410,221.376480 
	C422.738342,227.926987 423.198853,234.613495 422.898651,241.196915 
	C421.349274,275.170990 412.303772,306.864044 393.860779,335.734192 
	C374.233887,366.457733 348.225067,389.838562 315.146881,405.227722 
	C296.649872,413.833160 277.299316,419.865784 256.970917,421.777985 
	C244.460403,422.954834 231.672714,424.000671 219.250366,422.737244 
	C189.547424,419.716156 161.693954,410.389832 136.275055,394.344452 
	C101.781479,372.570831 77.156754,342.508270 61.755260,304.932953 
	C54.100704,286.257996 49.835194,266.679413 48.960205,245.947693 
M412.992737,218.355331 
	C412.288757,212.325760 412.058838,206.195419 410.802124,200.283340 
	C403.774536,167.223022 389.106110,137.931519 365.686493,113.497803 
	C357.172913,104.615562 347.475311,96.708794 337.583099,89.343987 
	C321.944885,77.701263 304.217316,69.832085 285.574554,64.356255 
	C267.919250,59.170456 249.806290,57.487236 231.326508,57.841694 
	C210.998291,58.231602 191.426498,61.522572 172.452118,68.738411 
	C139.367142,81.320435 111.990623,101.709991 91.432625,130.391357 
	C63.752338,169.009354 52.791435,212.193329 58.946785,259.570129 
	C62.414177,286.258179 71.454842,310.834778 86.194237,333.259094 
	C126.918945,395.217102 199.608032,425.356964 271.845123,410.635071 
	C312.507935,402.347961 346.132477,381.733398 372.840790,349.755310 
	C389.581421,329.711578 401.778473,307.380188 408.038696,282.064911 
	C410.631836,271.578735 412.355835,260.760651 413.202759,249.993469 
	C414.002686,239.823120 413.133484,229.521454 412.992737,218.355331 
z"/>
<path fill="#B2C1C1" opacity="1.000000" stroke="none" 
	d="
M1072.809326,57.745552 
	C1075.895752,57.463894 1078.546509,57.064362 1081.197632,57.062992 
	C1147.843140,57.028534 1214.488647,57.003387 1281.134155,57.054054 
	C1303.828247,57.071308 1321.862061,71.956543 1325.244019,93.210052 
	C1329.416992,119.433319 1309.737305,142.801331 1283.067139,142.967239 
	C1255.910156,143.136185 1228.751343,143.007843 1201.593262,143.008240 
	C1161.106079,143.008835 1120.618896,143.043182 1080.131714,142.993500 
	C1059.321655,142.967972 1043.580078,131.032913 1037.771240,111.074417 
	C1030.827271,87.215546 1047.715576,61.220829 1072.809326,57.745552 
M1311.976562,124.441734 
	C1322.451904,111.542839 1324.103027,94.516602 1315.668579,80.653625 
	C1307.617432,67.420860 1295.510864,61.756878 1280.017578,61.801838 
	C1214.044800,61.993259 1148.071045,61.881126 1082.097656,61.892300 
	C1079.933716,61.892666 1077.762939,61.942474 1075.606934,62.114254 
	C1062.630249,63.148186 1052.912720,69.721298 1046.469116,80.656082 
	C1031.225830,106.524330 1049.227905,137.798080 1079.964355,137.981781 
	C1147.268066,138.384033 1214.576172,138.163040 1281.882080,138.055771 
	C1293.524536,138.037216 1303.758911,134.149338 1311.976562,124.441734 
z"/>
<path fill="#B2C1C1" opacity="1.000000" stroke="none" 
	d="
M797.000000,143.008423 
	C748.669556,143.008209 700.839050,143.044510 653.008667,142.989853 
	C633.809509,142.967926 617.547791,131.237778 611.862793,114.088173 
	C602.174011,84.860832 623.848145,57.292381 652.854614,57.063805 
	C670.352539,56.925919 687.852295,57.035927 705.351257,57.035824 
	C753.515015,57.035549 801.679016,56.950188 849.842407,57.081676 
	C867.162720,57.128956 880.665100,64.466545 889.145264,79.839828 
	C904.560669,107.785637 884.490601,142.397675 852.495483,142.937958 
	C834.168457,143.247421 815.832153,143.003296 797.000000,143.008423 
M828.500000,138.117157 
	C835.996155,138.111603 843.498169,138.295654 850.987488,138.067276 
	C881.412292,137.139435 899.275757,106.613998 884.280762,80.838898 
	C876.826782,68.026146 865.215759,61.856480 850.276917,61.867321 
	C784.644714,61.914951 719.012512,61.887623 653.380310,61.897888 
	C651.882751,61.898125 650.380920,61.970490 648.888245,62.095219 
	C621.889587,64.351357 605.714233,94.614319 619.015198,118.210510 
	C627.003357,132.381699 639.697266,138.154800 655.590210,138.138977 
	C712.893433,138.081955 770.196716,138.116989 828.500000,138.117157 
z"/>
<path fill="#B7B8B7" opacity="1.000000" stroke="none" 
	d="
M1771.185059,286.795349 
	C1785.291382,309.645874 1784.807861,340.924011 1769.741455,361.626862 
	C1751.561890,386.607605 1727.052734,396.170013 1696.761475,389.959839 
	C1671.509033,384.782684 1650.185059,362.460327 1645.244141,336.700775 
	C1639.044800,304.380157 1656.303589,271.796021 1686.049438,259.661102 
	C1717.614868,246.783951 1751.877441,257.599274 1771.185059,286.795349 
M1725.865234,385.669312 
	C1726.503052,385.480530 1727.133301,385.259857 1727.779785,385.107513 
	C1756.477417,378.345520 1776.411377,353.326141 1776.747314,323.639862 
	C1777.077026,294.502350 1756.952881,268.358612 1728.747314,261.282227 
	C1701.772339,254.514572 1674.288330,265.187286 1659.053711,288.345795 
	C1644.535400,310.415558 1645.208984,340.576294 1661.469604,361.309235 
	C1677.635864,381.921783 1699.066528,390.030182 1725.865234,385.669312 
z"/>
<path fill="#B5B8B8" opacity="1.000000" stroke="none" 
	d="
M446.560547,570.442139 
	C424.584747,528.411011 446.755341,479.691132 492.061005,469.692169 
	C535.168457,460.178345 575.921570,493.632568 575.150208,537.900085 
	C574.627563,567.893738 553.894592,595.393127 526.069702,602.998657 
	C494.269928,611.690674 464.131012,599.432312 446.560547,570.442139 
M448.528290,563.791565 
	C457.362152,581.363586 470.884796,593.556152 490.061737,598.532654 
	C526.733398,608.049133 563.152588,584.770752 569.541504,548.080200 
	C575.981140,511.098328 549.781860,476.765991 512.400635,473.200958 
	C463.990601,468.584167 428.582031,518.160339 448.528290,563.791565 
z"/>
<path fill="#B8B8B6" opacity="1.000000" stroke="none" 
	d="
M1708.352783,48.646389 
	C1749.429932,45.814621 1778.293091,79.047440 1781.164429,110.022896 
	C1785.053833,151.981003 1752.739624,183.649460 1717.649048,185.774445 
	C1679.636719,188.076355 1646.677979,159.773743 1644.177368,122.319832 
	C1641.616089,83.954048 1669.679565,51.516800 1708.352783,48.646389 
M1763.411255,78.155029 
	C1742.278809,51.368050 1709.878174,48.211975 1686.145386,58.994923 
	C1656.323608,72.544395 1641.622681,106.867928 1652.033691,137.659134 
	C1662.657593,169.079987 1694.941040,187.254211 1727.689453,179.425156 
	C1773.161377,168.554337 1791.242065,115.079292 1763.411255,78.155029 
z"/>
<path fill="#B6B7B8" opacity="1.000000" stroke="none" 
	d="
M1563.289795,270.710022 
	C1525.020386,234.316528 1538.038940,171.700577 1587.753418,155.104813 
	C1637.003174,138.664200 1679.137817,177.685730 1678.428711,220.401688 
	C1677.983276,247.236206 1665.837280,267.560883 1642.746460,280.354706 
	C1620.135010,292.882996 1596.815186,291.960236 1574.290161,279.027008 
	C1570.434570,276.813232 1567.114014,273.667328 1563.289795,270.710022 
M1567.120361,172.587311 
	C1547.231079,191.289673 1541.122803,214.104294 1548.979980,239.886353 
	C1559.352783,273.922729 1596.112061,292.108643 1630.124268,281.023590 
	C1663.318604,270.205109 1682.045776,233.230347 1670.346313,199.736023 
	C1654.055908,153.098236 1598.877441,143.978592 1567.120361,172.587311 
z"/>
<path fill="#B8B6B6" opacity="1.000000" stroke="none" 
	d="
M1870.997192,261.010010 
	C1840.816406,301.242432 1778.272095,298.255585 1754.473999,251.214706 
	C1729.272461,201.399399 1769.748169,147.522308 1820.563965,151.663467 
	C1847.832031,153.885605 1867.315063,167.891037 1878.293579,192.242111 
	C1888.945435,215.868408 1886.522949,239.230713 1870.997192,261.010010 
M1754.812744,200.535080 
	C1750.877563,213.643372 1750.612793,226.817413 1754.814819,239.858505 
	C1765.755859,273.814911 1802.106201,292.136414 1836.133545,281.013977 
	C1869.391479,270.143036 1887.558350,233.374786 1876.373047,199.572769 
	C1867.993896,174.250885 1843.545166,156.590302 1816.377686,156.235031 
	C1788.801392,155.874420 1764.604492,173.037903 1754.812744,200.535080 
z"/>
<path fill="#B5B8B8" opacity="1.000000" stroke="none" 
	d="
M451.333344,783.677856 
	C421.786560,742.448364 443.288788,686.319946 492.408630,675.585449 
	C535.206787,666.232483 575.938354,699.824524 575.154724,743.827759 
	C574.622070,773.737671 556.501465,798.876099 527.289978,808.173584 
	C501.179749,816.483948 471.707947,809.884949 451.333344,783.677856 
M483.985718,802.757385 
	C498.289185,807.734192 512.708984,808.202148 527.103882,803.385620 
	C559.906311,792.409973 578.112427,756.343750 567.663635,723.304932 
	C557.095276,689.888428 521.378723,671.397278 487.353271,681.726746 
	C462.992004,689.122375 444.147583,712.620605 442.947784,737.098572 
	C441.465027,767.347961 456.227081,791.269348 483.985718,802.757385 
z"/>
<path fill="#B5B8B8" opacity="1.000000" stroke="none" 
	d="
M580.807678,702.179932 
	C542.753662,683.353760 529.352722,638.838013 550.902222,603.831238 
	C565.722839,579.755493 592.810791,567.630066 621.708252,572.136292 
	C647.604126,576.174438 670.271057,597.611755 676.504761,623.960388 
	C687.843872,671.889038 646.391418,715.838440 597.802246,707.229126 
	C592.141418,706.226135 586.697815,703.996948 580.807678,702.179932 
M638.316772,696.948242 
	C664.467773,682.822876 677.698669,656.161682 672.476562,628.113770 
	C666.364197,595.283691 637.003601,573.271362 603.041199,576.056274 
	C571.256042,578.662659 545.853455,606.809875 545.719788,639.570923 
	C545.526550,686.954041 595.335693,718.208435 638.316772,696.948242 
z"/>
<path fill="#B5B8B8" opacity="1.000000" stroke="none" 
	d="
M471.525574,629.515015 
	C475.594879,664.583557 457.501831,693.619507 424.762024,705.152527 
	C386.433685,718.653992 341.792786,691.696716 335.901001,651.492004 
	C330.343018,613.565002 352.921692,580.391846 389.660187,572.507507 
	C427.691376,564.345825 465.825500,590.732788 471.525574,629.515015 
M359.494568,686.011292 
	C378.357666,703.324341 400.245972,708.066467 424.337646,700.184021 
	C457.266235,689.410278 475.249023,652.932373 464.571350,620.030029 
	C453.779572,586.776062 418.281921,568.133850 384.567200,578.753601 
	C336.454285,593.908691 325.302795,653.340027 359.494568,686.011292 
z"/>
<path fill="#B6B6B6" opacity="1.000000" stroke="none" 
	d="
M1153.011230,271.023376 
	C1173.106934,259.618378 1193.012695,259.650330 1211.699585,272.416870 
	C1231.572144,285.993530 1239.002686,305.828583 1233.794434,329.151733 
	C1228.946167,350.862152 1214.514282,364.451385 1192.858765,369.572784 
	C1168.424072,375.351379 1142.877075,362.296570 1132.176392,339.180328 
	C1121.748901,316.654205 1128.776001,289.376953 1149.032227,273.793945 
	C1150.218140,272.881683 1151.465454,272.049377 1153.011230,271.023376 
M1230.428101,314.588806 
	C1230.088745,311.786285 1229.978271,308.933380 1229.374146,306.189117 
	C1223.953857,281.566437 1200.763184,265.197845 1175.557495,268.116028 
	C1151.020630,270.956757 1132.353638,291.974060 1132.265625,316.858582 
	C1132.154419,348.303619 1161.606567,371.930634 1192.230103,364.963104 
	C1215.244873,359.726715 1230.371216,340.200073 1230.428101,314.588806 
z"/>
<path fill="#B6B6B6" opacity="1.000000" stroke="none" 
	d="
M748.342285,370.661194 
	C721.831848,368.826874 703.312439,347.645874 699.421692,327.854218 
	C693.667053,298.580963 713.256165,268.809937 741.914246,263.955719 
	C773.457825,258.612762 801.862793,279.044830 805.825745,309.928131 
	C810.158447,343.692780 783.355957,372.252625 748.342285,370.661194 
M780.572021,357.159515 
	C793.458496,347.541962 800.933838,334.993866 801.300476,318.654388 
	C801.775269,297.502045 792.160583,281.797974 773.582886,272.745819 
	C755.765259,264.064087 737.724121,265.757507 721.993042,278.392853 
	C705.889404,291.327393 699.865234,308.585785 704.677734,328.743530 
	C712.670471,362.221741 750.317383,376.464752 780.572021,357.159515 
z"/>
<path fill="#003333" opacity="1.000000" stroke="none" 
	d="
M1451.223877,799.990540 
	C1379.652588,787.810059 1321.313477,730.435974 1307.317505,658.854431 
	C1291.879150,579.895386 1330.574829,500.973694 1402.515991,464.692719 
	C1479.969116,425.632080 1575.077271,448.366455 1626.342285,518.331726 
	C1653.841919,555.862793 1664.869751,598.006775 1659.973877,644.131165 
	C1652.059326,718.693115 1597.194702,780.554199 1524.068115,797.892151 
	C1500.094360,803.576233 1475.928589,803.882263 1451.223877,799.990540 
M1455.271729,690.279846 
	C1505.417114,710.630127 1555.211792,672.429993 1554.231079,623.308228 
	C1553.248779,574.122864 1502.687866,539.567322 1457.094238,558.294556 
	C1429.981445,569.431030 1414.360596,590.074768 1412.077026,619.524231 
	C1409.235718,656.167175 1432.749512,680.915222 1455.271729,690.279846 
z"/>
<path fill="#003333" opacity="1.000000" stroke="none" 
	d="
M412.995605,218.816437 
	C413.133484,229.521454 414.002686,239.823120 413.202759,249.993469 
	C412.355835,260.760651 410.631836,271.578735 408.038696,282.064911 
	C401.778473,307.380188 389.581421,329.711578 372.840790,349.755310 
	C346.132477,381.733398 312.507935,402.347961 271.845123,410.635071 
	C199.608032,425.356964 126.918945,395.217102 86.194237,333.259094 
	C71.454842,310.834778 62.414177,286.258179 58.946785,259.570129 
	C52.791435,212.193329 63.752338,169.009354 91.432625,130.391357 
	C111.990623,101.709991 139.367142,81.320435 172.452118,68.738411 
	C191.426498,61.522572 210.998291,58.231602 231.326508,57.841694 
	C249.806290,57.487236 267.919250,59.170456 285.574554,64.356255 
	C304.217316,69.832085 321.944885,77.701263 337.583099,89.343987 
	C347.475311,96.708794 357.172913,104.615562 365.686493,113.497803 
	C389.106110,137.931519 403.774536,167.223022 410.802124,200.283340 
	C412.058838,206.195419 412.288757,212.325760 412.995605,218.816437 
M299.118225,202.439377 
	C283.366394,175.485550 259.614014,162.641739 228.779297,165.272110 
	C188.183670,168.735107 159.855179,206.486267 165.875229,247.335220 
	C173.074936,296.188690 228.818237,322.934174 271.586670,298.055328 
	C304.994629,278.621521 316.609192,239.098648 299.118225,202.439377 
z"/>
<path fill="#01FEFE" opacity="1.000000" stroke="none" 
	d="
M1311.745850,124.713158 
	C1303.758911,134.149338 1293.524536,138.037216 1281.882080,138.055771 
	C1214.576172,138.163040 1147.268066,138.384033 1079.964355,137.981781 
	C1049.227905,137.798080 1031.225830,106.524330 1046.469116,80.656082 
	C1052.912720,69.721298 1062.630249,63.148186 1075.606934,62.114254 
	C1077.762939,61.942474 1079.933716,61.892666 1082.097656,61.892300 
	C1148.071045,61.881126 1214.044800,61.993259 1280.017578,61.801838 
	C1295.510864,61.756878 1307.617432,67.420860 1315.668579,80.653625 
	C1324.103027,94.516602 1322.451904,111.542839 1311.745850,124.713158 
M1097.655029,104.022652 
	C1097.655029,104.022652 1097.986816,104.004631 1098.780762,104.053452 
	C1103.467773,103.244598 1104.939209,107.202187 1107.190430,109.857262 
	C1111.267578,114.666000 1111.200439,114.722954 1117.693726,113.249809 
	C1116.408569,111.627647 1115.193237,110.087791 1113.971436,108.553093 
	C1112.743042,107.010124 1111.508301,105.472282 1110.098267,103.709763 
	C1110.907715,103.182037 1111.429688,102.859924 1111.932861,102.510742 
	C1116.993774,98.998222 1118.827881,94.073349 1117.253540,88.239685 
	C1115.938599,83.367561 1112.066406,80.461441 1106.012817,80.072678 
	C1103.032349,79.881271 1099.834106,79.396332 1097.097046,80.231903 
	C1094.792114,80.935493 1091.378418,83.258011 1091.271240,85.033836 
	C1090.695068,94.579643 1090.998779,104.178558 1090.998779,113.704880 
	C1093.298462,113.704880 1095.041626,113.704880 1097.322876,113.704880 
	C1097.322876,110.277252 1097.322876,107.145760 1097.655029,104.022652 
M1252.780762,104.053452 
	C1257.467773,103.244637 1258.939331,107.202164 1261.190430,109.857262 
	C1265.267578,114.666054 1265.200439,114.722984 1271.693726,113.249794 
	C1270.408569,111.627625 1269.193237,110.087784 1267.971436,108.553116 
	C1266.743042,107.010117 1265.508179,105.472298 1264.098267,103.709763 
	C1264.908569,103.181419 1265.430176,102.859680 1265.932861,102.510750 
	C1270.993408,98.998550 1272.827759,94.072884 1271.253540,88.239647 
	C1269.938721,83.367584 1266.066406,80.461449 1260.012817,80.072685 
	C1257.032349,79.881279 1253.834106,79.396301 1251.096924,80.231842 
	C1248.792114,80.935425 1245.378418,83.257965 1245.271240,85.033836 
	C1244.694946,94.579643 1244.998779,104.178566 1244.998779,113.704880 
	C1247.298462,113.704880 1249.041626,113.704880 1251.322876,113.704880 
	C1251.322876,110.277252 1251.322876,107.145760 1251.655029,104.022652 
	C1251.655029,104.022652 1251.986816,104.004631 1252.780762,104.053452 
M1173.037476,100.720001 
	C1173.037476,105.005569 1173.037476,109.291138 1173.037476,113.795517 
	C1175.599121,113.795517 1177.372803,113.795517 1179.441284,113.795517 
	C1179.441284,102.590363 1179.441284,91.519646 1179.441284,80.364113 
	C1177.345093,80.364113 1175.483765,80.364113 1173.148682,80.364113 
	C1173.148682,85.171547 1173.148682,89.602829 1173.148682,94.193390 
	C1168.379028,94.527596 1164.079224,94.828888 1159.386963,95.157677 
	C1159.386963,90.341431 1159.386963,85.387695 1159.386963,80.330505 
	C1157.118530,80.330505 1155.246704,80.330505 1153.449585,80.330505 
	C1153.449585,91.731041 1153.449585,102.773888 1153.449585,113.701378 
	C1155.586914,113.701378 1157.333374,113.701378 1159.486694,113.701378 
	C1159.486694,109.104263 1159.486694,104.825500 1159.486694,100.146843 
	C1164.018066,100.146843 1168.141602,100.146843 1173.037476,100.720001 
M1228.850464,80.146629 
	C1225.696655,80.103729 1222.389160,79.457428 1219.437744,80.209251 
	C1217.087036,80.808052 1213.446533,83.009697 1213.346313,84.678146 
	C1212.764648,94.355354 1213.062012,104.085388 1213.062012,114.012680 
	C1217.793091,114.012680 1221.933350,114.079475 1226.070557,113.998726 
	C1234.555786,113.833107 1239.316406,109.252884 1239.765991,100.815788 
	C1239.898438,98.331116 1239.886475,95.829025 1239.771240,93.342751 
	C1239.440186,86.194130 1236.683838,82.677612 1228.850464,80.146629 
M1139.931152,80.222206 
	C1136.951538,80.257828 1133.916382,79.943420 1131.004395,80.405106 
	C1125.654663,81.253258 1122.189453,84.710106 1121.936890,88.919487 
	C1121.616455,94.259926 1125.172852,96.564575 1129.452148,98.149658 
	C1132.405151,99.243484 1135.550293,99.887947 1138.376221,101.226059 
	C1139.768311,101.885155 1140.631470,103.661324 1141.733887,104.932037 
	C1140.410156,106.023323 1139.214600,107.770409 1137.734131,108.059631 
	C1135.206299,108.553528 1132.397217,108.577644 1129.890381,108.000214 
	C1125.263062,106.934357 1125.318481,106.693512 1122.093628,111.096291 
	C1128.670288,114.655106 1135.584961,115.414238 1142.175415,112.338211 
	C1144.791748,111.117096 1147.510376,107.364113 1147.725952,104.574043 
	C1147.917236,102.099113 1145.143799,98.853210 1142.865845,96.892319 
	C1140.864136,95.169144 1137.610352,94.993340 1135.140015,93.695374 
	C1132.717529,92.422508 1128.482788,90.192261 1128.695679,89.083748 
	C1129.552368,84.624283 1133.884766,85.609261 1137.269531,85.485367 
	C1137.916138,85.461708 1138.709961,85.513992 1139.202637,85.861633 
	C1143.009155,88.547020 1145.032349,86.112282 1147.630493,82.895157 
	C1145.022949,81.945633 1142.895142,81.170837 1139.931152,80.222206 
M1192.135742,82.729721 
	C1191.848755,77.773102 1188.471680,80.796585 1185.989990,79.892395 
	C1185.989990,89.773293 1185.681396,99.069641 1186.239136,108.313675 
	C1186.356934,110.262993 1189.489258,113.370728 1191.511353,113.612381 
	C1197.471558,114.324692 1203.571655,113.866653 1210.217285,113.866653 
	C1206.232788,104.462692 1197.898682,111.077103 1192.139771,107.568985 
	C1192.139771,99.907646 1192.139771,91.800186 1192.135742,82.729721 
z"/>
<path fill="#01FEFE" opacity="1.000000" stroke="none" 
	d="
M828.000000,138.117218 
	C770.196716,138.116989 712.893433,138.081955 655.590210,138.138977 
	C639.697266,138.154800 627.003357,132.381699 619.015198,118.210510 
	C605.714233,94.614319 621.889587,64.351357 648.888245,62.095219 
	C650.380920,61.970490 651.882751,61.898125 653.380310,61.897888 
	C719.012512,61.887623 784.644714,61.914951 850.276917,61.867321 
	C865.215759,61.856480 876.826782,68.026146 884.280762,80.838898 
	C899.275757,106.613998 881.412292,137.139435 850.987488,138.067276 
	C843.498169,138.295654 835.996155,138.111603 828.000000,138.117218 
M820.654968,104.022591 
	C820.654968,104.022591 820.986633,104.004547 821.780518,104.053429 
	C826.465881,103.246857 827.939209,107.201569 830.190369,109.856964 
	C834.267273,114.666039 834.200378,114.722725 840.693665,113.249985 
	C839.408569,111.627823 838.193298,110.087975 836.971497,108.553284 
	C835.743164,107.010292 834.508301,105.472473 833.098206,103.709831 
	C833.908630,103.181419 834.430176,102.859718 834.932861,102.510818 
	C839.993469,98.998344 841.827820,94.072739 840.253479,88.239632 
	C838.938538,83.367592 835.066284,80.461403 829.012695,80.072670 
	C826.032227,79.881279 822.834106,79.396317 820.096985,80.231888 
	C817.792053,80.935516 814.378357,83.258041 814.271179,85.033890 
	C813.694946,94.579689 813.998779,104.178619 813.998779,113.704811 
	C816.306641,113.704811 818.048889,113.704811 820.322998,113.704811 
	C820.322998,110.277107 820.322998,107.145607 820.654968,104.022591 
M728.413696,85.691887 
	C728.413696,83.902512 728.413696,82.113129 728.413696,80.198059 
	C726.107117,80.198059 724.336731,80.198059 722.331665,80.198059 
	C722.331665,91.489632 722.331665,102.558243 722.331665,113.825142 
	C724.377319,113.825142 726.154358,113.825142 728.496826,113.825142 
	C728.496826,109.255676 728.496826,104.848473 728.496826,100.292496 
	C733.316345,100.292496 737.568115,100.292496 742.404358,100.292496 
	C742.404358,104.937279 742.404358,109.333855 742.404358,113.743317 
	C744.753601,113.743317 746.513184,113.743317 748.394836,113.743317 
	C748.394836,102.401047 748.394836,91.342094 748.394836,80.252571 
	C746.290161,80.252571 744.528748,80.252571 742.142456,80.252571 
	C742.142456,85.088943 742.142456,89.659744 742.142456,94.219597 
	C737.307495,94.547554 733.096191,94.833214 728.413330,95.150856 
	C728.413330,92.554886 728.413330,89.586479 728.413696,85.691887 
M804.927917,83.544456 
	C799.238953,78.555450 792.505859,79.631668 785.975891,80.670815 
	C784.495544,80.906380 782.281982,83.246376 782.232971,84.680206 
	C781.900940,94.386009 782.059631,104.108589 782.059631,113.997391 
	C787.161926,113.997391 791.643494,114.104179 796.117676,113.969009 
	C801.142761,113.817200 805.661255,111.849556 807.230896,106.977394 
	C809.708313,99.287323 810.519165,91.364891 804.927917,83.544456 
M698.895813,113.930054 
	C702.950439,113.343674 707.359741,113.572586 710.983643,111.996086 
	C717.882751,108.994667 718.025818,100.875076 711.495361,97.116219 
	C708.662170,95.485481 705.259521,94.871819 702.315247,93.397369 
	C700.143738,92.309898 696.544678,90.454674 696.634766,89.152786 
	C696.897583,85.355003 700.685791,85.586990 703.656372,85.467270 
	C704.801819,85.421112 706.201721,85.302254 707.069702,85.861794 
	C710.843994,88.294952 713.003113,86.213066 715.386414,83.230614 
	C709.990784,79.613098 704.294373,79.365662 698.496277,80.521774 
	C693.950928,81.428070 690.428772,83.870506 689.961792,88.950562 
	C689.494873,94.029053 692.934753,96.404228 697.009094,98.000168 
	C700.093384,99.208267 703.411560,99.862953 706.402527,101.246346 
	C707.794861,101.890373 708.657837,103.678833 709.760803,104.948502 
	C708.431458,106.034492 707.228943,107.772125 705.744446,108.061058 
	C703.215210,108.553314 700.023499,109.026939 697.977783,107.913773 
	C693.731628,105.603256 692.234009,108.307800 689.166809,111.126564 
	C692.742188,112.223480 695.384705,113.034180 698.895813,113.930054 
M778.315735,112.184830 
	C777.402954,109.442581 775.595703,108.395332 772.646118,108.589890 
	C768.911621,108.836227 765.148560,108.649422 761.033325,108.649422 
	C761.033325,98.676216 761.033325,89.567596 761.033325,80.235992 
	C758.914429,80.235992 757.177063,80.235992 754.984924,80.235992 
	C754.984924,89.705284 754.808105,98.992874 755.144531,108.261848 
	C755.206665,109.973579 757.266357,112.980370 758.535950,113.051933 
	C765.228821,113.429207 771.963989,113.057335 778.315735,112.184830 
M663.941833,96.492149 
	C663.945435,100.150780 663.957642,103.809433 663.950256,107.468040 
	C663.943115,111.000511 665.753296,113.495445 669.127380,113.699387 
	C675.277893,114.071159 681.467102,113.805038 688.186951,113.805038 
	C684.124268,104.518944 675.831177,111.037872 670.020508,107.571762 
	C670.020508,98.718285 670.020508,89.492088 670.020508,80.307617 
	C667.746277,80.307617 666.011597,80.307617 663.941833,80.307617 
	C663.941833,85.569740 663.941833,90.533325 663.941833,96.492149 
z"/>
<path fill="#013401" opacity="1.000000" stroke="none" 
	d="
M1725.445068,385.758057 
	C1699.066528,390.030182 1677.635864,381.921783 1661.469604,361.309235 
	C1645.208984,340.576294 1644.535400,310.415558 1659.053711,288.345795 
	C1674.288330,265.187286 1701.772339,254.514572 1728.747314,261.282227 
	C1756.952881,268.358612 1777.077026,294.502350 1776.747314,323.639862 
	C1776.411377,353.326141 1756.477417,378.345520 1727.779785,385.107513 
	C1727.133301,385.259857 1726.503052,385.480530 1725.445068,385.758057 
M1706.969116,329.973633 
	C1706.969116,329.973633 1707.073975,330.061768 1707.055298,330.881378 
	C1709.296387,331.503815 1711.518066,332.211670 1713.784058,332.724030 
	C1715.958252,333.215668 1719.598999,332.853333 1720.124268,333.999084 
	C1722.054443,338.209229 1724.906128,337.023560 1728.547485,336.555664 
	C1725.091919,326.508209 1721.953735,316.729797 1718.244995,307.172852 
	C1717.536987,305.348480 1714.554443,303.311279 1712.661499,303.349792 
	C1710.759888,303.388458 1707.920288,305.516266 1707.200928,307.386047 
	C1703.521240,316.952057 1700.393677,326.730530 1697.047974,336.507690 
	C1701.826050,337.908630 1704.918579,337.064606 1705.775513,332.021240 
	C1705.903320,331.269714 1706.489502,330.596130 1706.969116,329.973633 
z"/>
<path fill="#013434" opacity="1.000000" stroke="none" 
	d="
M448.352478,563.456909 
	C428.582031,518.160339 463.990601,468.584167 512.400635,473.200958 
	C549.781860,476.765991 575.981140,511.098328 569.541504,548.080200 
	C563.152588,584.770752 526.733398,608.049133 490.061737,598.532654 
	C470.884796,593.556152 457.362152,581.363586 448.352478,563.456909 
M512.022888,505.416962 
	C510.318817,502.790588 508.614746,500.164215 506.507599,496.916626 
	C493.127350,517.985229 480.112946,538.477844 466.774750,559.480225 
	C493.696594,559.480225 519.562012,559.480225 546.370911,559.480225 
	C534.796082,541.247437 523.613708,523.632935 512.022888,505.416962 
z"/>
<path fill="#343401" opacity="1.000000" stroke="none" 
	d="
M1763.628906,78.439209 
	C1791.242065,115.079292 1773.161377,168.554337 1727.689453,179.425156 
	C1694.941040,187.254211 1662.657593,169.079987 1652.033691,137.659134 
	C1641.622681,106.867928 1656.323608,72.544395 1686.145386,58.994923 
	C1709.878174,48.211975 1742.278809,51.368050 1763.628906,78.439209 
M1716.104614,129.231400 
	C1716.198486,122.845665 1715.429565,116.530022 1720.364014,110.943703 
	C1723.732056,107.130676 1725.668823,102.053391 1728.276978,97.486641 
	C1723.143311,95.843613 1720.522095,97.699150 1718.620605,101.783401 
	C1717.111816,105.024353 1714.909302,107.942261 1712.773560,111.393074 
	C1710.521118,107.667542 1708.345825,104.673492 1706.811523,101.380760 
	C1704.847290,97.165451 1701.962280,95.999260 1697.512085,97.480766 
	C1702.106323,108.403862 1712.928833,116.935661 1708.972168,131.417725 
	C1712.050537,130.864731 1714.026855,130.509705 1716.104614,129.231400 
z"/>
<path fill="#011234" opacity="1.000000" stroke="none" 
	d="
M1567.377930,172.342590 
	C1598.877441,143.978592 1654.055908,153.098236 1670.346313,199.736023 
	C1682.045776,233.230347 1663.318604,270.205109 1630.124268,281.023590 
	C1596.112061,292.108643 1559.352783,273.922729 1548.979980,239.886353 
	C1541.122803,214.104294 1547.231079,191.289673 1567.377930,172.342590 
M1617.025757,213.840958 
	C1619.640259,209.435974 1622.254761,205.031006 1624.912964,200.552383 
	C1619.895752,198.809341 1617.020508,200.467819 1615.083130,204.820129 
	C1613.778442,207.751312 1611.848511,210.404175 1609.880859,213.715637 
	C1607.848145,210.210464 1606.023193,207.596771 1604.746704,204.738129 
	C1602.819214,200.421417 1599.951782,198.813751 1595.057495,200.597504 
	C1596.857910,203.679840 1598.219238,206.997711 1600.431152,209.589645 
	C1604.915649,214.844406 1604.282837,219.479095 1600.156494,224.528976 
	C1598.005737,227.160995 1596.540527,230.353180 1594.719238,233.369232 
	C1599.619385,235.204056 1602.329102,233.541229 1604.297974,229.479568 
	C1605.771118,226.440323 1607.834351,223.687103 1609.975464,220.261642 
	C1612.243408,223.937683 1614.079468,226.875854 1615.877563,229.837067 
	C1618.865234,234.756699 1619.008057,234.820526 1625.107300,233.089188 
	C1622.359009,228.646606 1619.477417,224.375687 1617.060181,219.856369 
	C1616.290527,218.417221 1616.754761,216.317963 1617.025757,213.840958 
z"/>
<path fill="#340101" opacity="1.000000" stroke="none" 
	d="
M1754.914307,200.147797 
	C1764.604492,173.037903 1788.801392,155.874420 1816.377686,156.235031 
	C1843.545166,156.590302 1867.993896,174.250885 1876.373047,199.572769 
	C1887.558350,233.374786 1869.391479,270.143036 1836.133545,281.013977 
	C1802.106201,292.136414 1765.755859,273.814911 1754.814819,239.858505 
	C1750.612793,226.817413 1750.877563,213.643372 1754.914307,200.147797 
M1826.355957,204.305298 
	C1822.447510,200.193970 1810.625610,198.083008 1806.004517,200.977066 
	C1804.641724,201.830505 1803.134399,203.742279 1803.093872,205.207886 
	C1802.832520,214.633621 1802.960327,224.070129 1802.960327,234.005539 
	C1807.890747,234.005539 1812.343506,234.031647 1816.795776,233.998535 
	C1821.661987,233.962341 1826.312378,233.068237 1828.640991,228.214478 
	C1830.910522,223.484283 1828.765869,219.581619 1826.782104,217.825409 
	C1826.782104,212.443069 1826.782104,208.694534 1826.355957,204.305298 
z"/>
<path fill="#013434" opacity="1.000000" stroke="none" 
	d="
M483.626465,802.596130 
	C456.227081,791.269348 441.465027,767.347961 442.947784,737.098572 
	C444.147583,712.620605 462.992004,689.122375 487.353271,681.726746 
	C521.378723,671.397278 557.095276,689.888428 567.663635,723.304932 
	C578.112427,756.343750 559.906311,792.409973 527.103882,803.385620 
	C512.708984,808.202148 498.289185,807.734192 483.626465,802.596130 
M514.977356,769.503906 
	C525.348877,753.200012 535.720459,736.896179 546.357239,720.175293 
	C519.399841,720.175293 493.492828,720.175293 466.777191,720.175293 
	C480.130890,741.194336 493.123199,761.644592 506.549408,782.777771 
	C509.478027,778.172119 512.037781,774.146484 514.977356,769.503906 
z"/>
<path fill="#013434" opacity="1.000000" stroke="none" 
	d="
M637.970947,697.094177 
	C595.335693,718.208435 545.526550,686.954041 545.719788,639.570923 
	C545.853455,606.809875 571.256042,578.662659 603.041199,576.056274 
	C637.003601,573.271362 666.364197,595.283691 672.476562,628.113770 
	C677.698669,656.161682 664.467773,682.822876 637.970947,697.094177 
M586.787720,656.499878 
	C586.787720,663.904602 586.787720,671.309265 586.787720,679.716553 
	C608.149170,666.138977 628.616821,653.129578 649.594360,639.796021 
	C628.389587,626.349243 607.994568,613.416016 586.787842,599.968018 
	C586.787842,619.290955 586.787842,637.395386 586.787720,656.499878 
z"/>
<path fill="#013535" opacity="1.000000" stroke="none" 
	d="
M359.236816,685.769165 
	C325.302795,653.340027 336.454285,593.908691 384.567200,578.753601 
	C418.281921,568.133850 453.779572,586.776062 464.571350,620.030029 
	C475.249023,652.932373 457.266235,689.410278 424.337646,700.184021 
	C400.245972,708.066467 378.357666,703.324341 359.236816,685.769165 
M410.484406,609.971252 
	C395.095581,619.766296 379.706726,629.561279 363.581268,639.825134 
	C384.624939,653.191040 405.102325,666.197205 425.952698,679.440308 
	C425.952698,652.734924 425.952698,626.916809 425.952698,600.242310 
	C420.570984,603.634277 415.838135,606.617310 410.484406,609.971252 
z"/>
<path fill="#010303" opacity="1.000000" stroke="none" 
	d="
M1230.467285,315.070374 
	C1230.371216,340.200073 1215.244873,359.726715 1192.230103,364.963104 
	C1161.606567,371.930634 1132.154419,348.303619 1132.265625,316.858582 
	C1132.353638,291.974060 1151.020630,270.956757 1175.557495,268.116028 
	C1200.763184,265.197845 1223.953857,281.566437 1229.374146,306.189117 
	C1229.978271,308.933380 1230.088745,311.786285 1230.467285,315.070374 
M1166.525146,319.894287 
	C1180.289795,319.894287 1194.054443,319.894287 1208.079590,319.894287 
	C1208.079590,317.778900 1208.079590,316.052277 1208.079590,314.198059 
	C1190.213989,314.198059 1172.650513,314.198059 1154.823730,314.198059 
	C1154.823730,316.119141 1154.823730,317.837158 1154.823730,319.894287 
	C1158.609131,319.894287 1162.073975,319.894287 1166.525146,319.894287 
M1205.375000,298.997406 
	C1188.586182,298.997406 1171.797241,298.997406 1154.836426,298.997406 
	C1154.836426,301.143158 1154.836426,302.874603 1154.836426,304.707581 
	C1172.728516,304.707581 1190.314209,304.707581 1209.415771,304.707581 
	C1208.118408,302.294678 1207.233276,300.648621 1205.375000,298.997406 
M1156.621094,334.963135 
	C1173.705444,334.963135 1190.789917,334.963135 1208.108887,334.963135 
	C1208.108887,332.825836 1208.108887,331.095490 1208.108887,329.165649 
	C1190.206299,329.165649 1172.532104,329.165649 1154.082520,329.165649 
	C1154.687134,331.398712 1155.161987,333.152496 1156.621094,334.963135 
z"/>
<path fill="#010404" opacity="1.000000" stroke="none" 
	d="
M780.297058,357.392761 
	C750.317383,376.464752 712.670471,362.221741 704.677734,328.743530 
	C699.865234,308.585785 705.889404,291.327393 721.993042,278.392853 
	C737.724121,265.757507 755.765259,264.064087 773.582886,272.745819 
	C792.160583,281.797974 801.775269,297.502045 801.300476,318.654388 
	C800.933838,334.993866 793.458496,347.541962 780.297058,357.392761 
M779.335938,347.131683 
	C787.807495,347.124054 788.166748,346.772797 788.167664,338.479889 
	C788.168396,331.480072 788.055908,324.477844 788.208008,317.481323 
	C788.303162,313.102631 786.616394,311.074615 782.065125,311.126282 
	C770.233643,311.260620 758.398499,311.261749 746.567078,311.125916 
	C741.987244,311.073334 740.359009,313.185242 740.429932,317.515350 
	C740.555359,325.179749 740.433228,332.847870 740.474731,340.514099 
	C740.504028,345.928986 741.754272,347.113220 747.372498,347.125275 
	C757.705505,347.147430 768.038574,347.131653 779.335938,347.131683 
M717.977600,321.697113 
	C721.230957,322.308228 724.484314,322.919312 728.272644,323.630890 
	C728.142639,320.822388 728.063293,319.109039 727.986389,317.448029 
	C725.839050,317.125458 724.123047,316.867706 722.704346,316.654602 
	C722.704346,308.674133 722.704346,301.108398 722.704346,293.419739 
	C733.646118,293.419739 744.209534,293.419739 754.826599,293.419739 
	C755.103943,295.432281 755.344116,297.174957 755.620361,299.179657 
	C757.634827,299.087708 759.362610,299.008850 761.332092,298.918976 
	C761.332092,296.651672 761.325989,294.837616 761.333313,293.023590 
	C761.348755,289.185974 759.484131,287.161285 755.606140,287.156128 
	C744.470703,287.141327 733.335327,287.148712 722.199890,287.151398 
	C718.338196,287.152344 716.385193,289.111877 716.371826,292.953827 
	C716.348755,299.601746 716.268677,306.251831 716.409485,312.896851 
	C716.467529,315.637146 717.034851,318.366669 717.977600,321.697113 
z"/>
<path fill="#33FEFE" opacity="1.000000" stroke="none" 
	d="
M1454.911621,690.146973 
	C1432.749512,680.915222 1409.235718,656.167175 1412.077026,619.524231 
	C1414.360596,590.074768 1429.981445,569.431030 1457.094238,558.294556 
	C1502.687866,539.567322 1553.248779,574.122864 1554.231079,623.308228 
	C1555.211792,672.429993 1505.417114,710.630127 1454.911621,690.146973 
z"/>
<path fill="#33FEFE" opacity="1.000000" stroke="none" 
	d="
M299.308044,202.758240 
	C316.609192,239.098648 304.994629,278.621521 271.586670,298.055328 
	C228.818237,322.934174 173.074936,296.188690 165.875229,247.335220 
	C159.855179,206.486267 188.183670,168.735107 228.779297,165.272110 
	C259.614014,162.641739 283.366394,175.485550 299.308044,202.758240 
z"/>
<path fill="#352C7B" opacity="1.000000" stroke="none" 
	d="
M1172.651245,100.433426 
	C1168.141602,100.146843 1164.018066,100.146843 1159.486694,100.146843 
	C1159.486694,104.825500 1159.486694,109.104263 1159.486694,113.701378 
	C1157.333374,113.701378 1155.586914,113.701378 1153.449585,113.701378 
	C1153.449585,102.773888 1153.449585,91.731041 1153.449585,80.330505 
	C1155.246704,80.330505 1157.118530,80.330505 1159.386963,80.330505 
	C1159.386963,85.387695 1159.386963,90.341431 1159.386963,95.157677 
	C1164.079224,94.828888 1168.379028,94.527596 1173.148682,94.193390 
	C1173.148682,89.602829 1173.148682,85.171547 1173.148682,80.364113 
	C1175.483765,80.364113 1177.345093,80.364113 1179.441284,80.364113 
	C1179.441284,91.519646 1179.441284,102.590363 1179.441284,113.795517 
	C1177.372803,113.795517 1175.599121,113.795517 1173.037476,113.795517 
	C1173.037476,109.291138 1173.037476,105.005569 1172.651245,100.433426 
z"/>
<path fill="#362677" opacity="1.000000" stroke="none" 
	d="
M1251.322876,104.014259 
	C1251.322876,107.145760 1251.322876,110.277252 1251.322876,113.704880 
	C1249.041626,113.704880 1247.298462,113.704880 1244.998779,113.704880 
	C1244.998779,104.178566 1244.694946,94.579643 1245.271240,85.033836 
	C1245.378418,83.257965 1248.792114,80.935425 1251.096924,80.231842 
	C1253.834106,79.396301 1257.032349,79.881279 1260.012817,80.072685 
	C1266.066406,80.461449 1269.938721,83.367584 1271.253540,88.239647 
	C1272.827759,94.072884 1270.993408,98.998550 1265.932861,102.510750 
	C1265.430176,102.859680 1264.908569,103.181419 1264.098267,103.709763 
	C1265.508179,105.472298 1266.743042,107.010117 1267.971436,108.553116 
	C1269.193237,110.087784 1270.408569,111.627625 1271.693726,113.249794 
	C1265.200439,114.722984 1265.267578,114.666054 1261.190430,109.857262 
	C1258.939331,107.202164 1257.467773,103.244637 1252.493042,103.692329 
	C1253.766724,100.346146 1255.287109,97.733200 1259.576050,98.143311 
	C1263.372070,98.506294 1265.278320,95.947632 1265.382935,92.210754 
	C1265.492310,88.304535 1263.758789,85.786209 1259.679932,85.514862 
	C1256.934814,85.332245 1254.167603,85.480072 1251.322876,85.480072 
	C1251.322876,92.101974 1251.322876,98.058113 1251.322876,104.014259 
z"/>
<path fill="#362677" opacity="1.000000" stroke="none" 
	d="
M1097.322876,104.014259 
	C1097.322876,107.145760 1097.322876,110.277252 1097.322876,113.704880 
	C1095.041626,113.704880 1093.298462,113.704880 1090.998779,113.704880 
	C1090.998779,104.178558 1090.695068,94.579643 1091.271240,85.033836 
	C1091.378418,83.258011 1094.792114,80.935493 1097.097046,80.231903 
	C1099.834106,79.396332 1103.032349,79.881271 1106.012817,80.072678 
	C1112.066406,80.461441 1115.938599,83.367561 1117.253540,88.239685 
	C1118.827881,94.073349 1116.993774,98.998222 1111.932861,102.510742 
	C1111.429688,102.859924 1110.907715,103.182037 1110.098267,103.709763 
	C1111.508301,105.472282 1112.743042,107.010124 1113.971436,108.553093 
	C1115.193237,110.087791 1116.408569,111.627647 1117.693726,113.249809 
	C1111.200439,114.722954 1111.267578,114.666000 1107.190430,109.857262 
	C1104.939209,107.202187 1103.467773,103.244598 1098.493042,103.692329 
	C1099.766724,100.346146 1101.287109,97.733192 1105.576050,98.143311 
	C1109.372070,98.506294 1111.278320,95.947632 1111.382935,92.210754 
	C1111.492310,88.304535 1109.758789,85.786209 1105.679932,85.514862 
	C1102.934814,85.332245 1100.167603,85.480072 1097.322876,85.480072 
	C1097.322876,92.101974 1097.322876,98.058113 1097.322876,104.014259 
z"/>
<path fill="#362677" opacity="1.000000" stroke="none" 
	d="
M1229.269775,80.217888 
	C1236.683838,82.677612 1239.440186,86.194130 1239.771240,93.342751 
	C1239.886475,95.829025 1239.898438,98.331116 1239.765991,100.815788 
	C1239.316406,109.252884 1234.555786,113.833107 1226.070557,113.998726 
	C1221.933350,114.079475 1217.793091,114.012680 1213.062012,114.012680 
	C1213.062012,104.085388 1212.764648,94.355354 1213.346313,84.678146 
	C1213.446533,83.009697 1217.087036,80.808052 1219.437744,80.209251 
	C1222.389160,79.457428 1225.696655,80.103729 1229.269775,80.217888 
M1228.508057,108.366989 
	C1233.253296,105.555931 1235.367798,96.309509 1232.780518,89.683838 
	C1231.111084,85.408646 1226.634766,84.223618 1219.464844,86.136223 
	C1219.464844,93.508232 1219.464844,100.863358 1219.464844,108.552895 
	C1222.452759,108.552895 1225.074097,108.552895 1228.508057,108.366989 
z"/>
<path fill="#362677" opacity="1.000000" stroke="none" 
	d="
M1140.349243,80.309128 
	C1142.895142,81.170837 1145.022949,81.945633 1147.630493,82.895157 
	C1145.032349,86.112282 1143.009155,88.547020 1139.202637,85.861633 
	C1138.709961,85.513992 1137.916138,85.461708 1137.269531,85.485367 
	C1133.884766,85.609261 1129.552368,84.624283 1128.695679,89.083748 
	C1128.482788,90.192261 1132.717529,92.422508 1135.140015,93.695374 
	C1137.610352,94.993340 1140.864136,95.169144 1142.865845,96.892319 
	C1145.143799,98.853210 1147.917236,102.099113 1147.725952,104.574043 
	C1147.510376,107.364113 1144.791748,111.117096 1142.175415,112.338211 
	C1135.584961,115.414238 1128.670288,114.655106 1122.093628,111.096291 
	C1125.318481,106.693512 1125.263062,106.934357 1129.890381,108.000214 
	C1132.397217,108.577644 1135.206299,108.553528 1137.734131,108.059631 
	C1139.214600,107.770409 1140.410156,106.023323 1141.733887,104.932022 
	C1140.631470,103.661324 1139.768311,101.885155 1138.376221,101.226059 
	C1135.550293,99.887947 1132.405151,99.243484 1129.452148,98.149658 
	C1125.172852,96.564575 1121.616455,94.259926 1121.936890,88.919487 
	C1122.189453,84.710106 1125.654663,81.253258 1131.004395,80.405106 
	C1133.916382,79.943420 1136.951538,80.257828 1140.349243,80.309128 
z"/>
<path fill="#372073" opacity="1.000000" stroke="none" 
	d="
M1192.137695,83.211227 
	C1192.139771,91.800186 1192.139771,99.907646 1192.139771,107.568985 
	C1197.898682,111.077103 1206.232788,104.462692 1210.217285,113.866653 
	C1203.571655,113.866653 1197.471558,114.324692 1191.511353,113.612381 
	C1189.489258,113.370728 1186.356934,110.262993 1186.239136,108.313675 
	C1185.681396,99.069641 1185.989990,89.773293 1185.989990,79.892395 
	C1188.471680,80.796585 1191.848755,77.773102 1192.137695,83.211227 
z"/>
<path fill="#02F6FA" opacity="1.000000" stroke="none" 
	d="
M1251.489014,104.018456 
	C1251.322876,98.058113 1251.322876,92.101974 1251.322876,85.480072 
	C1254.167603,85.480072 1256.934814,85.332245 1259.679932,85.514862 
	C1263.758789,85.786209 1265.492310,88.304535 1265.382935,92.210754 
	C1265.278320,95.947632 1263.372070,98.506294 1259.576050,98.143311 
	C1255.287109,97.733200 1253.766724,100.346146 1252.096069,103.667923 
	C1251.986816,104.004631 1251.655029,104.022652 1251.489014,104.018456 
z"/>
<path fill="#02F6FA" opacity="1.000000" stroke="none" 
	d="
M1097.489014,104.018456 
	C1097.322876,98.058113 1097.322876,92.101974 1097.322876,85.480072 
	C1100.167603,85.480072 1102.934814,85.332245 1105.679932,85.514862 
	C1109.758789,85.786209 1111.492310,88.304535 1111.382935,92.210754 
	C1111.278320,95.947632 1109.372070,98.506294 1105.576050,98.143311 
	C1101.287109,97.733192 1099.766724,100.346146 1098.096069,103.667923 
	C1097.986816,104.004631 1097.655029,104.022652 1097.489014,104.018456 
z"/>
<path fill="#352C7B" opacity="1.000000" stroke="none" 
	d="
M728.413513,86.154976 
	C728.413330,89.586479 728.413330,92.554886 728.413330,95.150856 
	C733.096191,94.833214 737.307495,94.547554 742.142456,94.219597 
	C742.142456,89.659744 742.142456,85.088943 742.142456,80.252571 
	C744.528748,80.252571 746.290161,80.252571 748.394836,80.252571 
	C748.394836,91.342094 748.394836,102.401047 748.394836,113.743317 
	C746.513184,113.743317 744.753601,113.743317 742.404358,113.743317 
	C742.404358,109.333855 742.404358,104.937279 742.404358,100.292496 
	C737.568115,100.292496 733.316345,100.292496 728.496826,100.292496 
	C728.496826,104.848473 728.496826,109.255676 728.496826,113.825142 
	C726.154358,113.825142 724.377319,113.825142 722.331665,113.825142 
	C722.331665,102.558243 722.331665,91.489632 722.331665,80.198059 
	C724.336731,80.198059 726.107117,80.198059 728.413696,80.198059 
	C728.413696,82.113129 728.413696,83.902512 728.413513,86.154976 
z"/>
<path fill="#362677" opacity="1.000000" stroke="none" 
	d="
M820.322998,104.014099 
	C820.322998,107.145607 820.322998,110.277107 820.322998,113.704811 
	C818.048889,113.704811 816.306641,113.704811 813.998779,113.704811 
	C813.998779,104.178619 813.694946,94.579689 814.271179,85.033890 
	C814.378357,83.258041 817.792053,80.935516 820.096985,80.231888 
	C822.834106,79.396317 826.032227,79.881279 829.012695,80.072670 
	C835.066284,80.461403 838.938538,83.367592 840.253479,88.239632 
	C841.827820,94.072739 839.993469,98.998344 834.932861,102.510818 
	C834.430176,102.859718 833.908630,103.181419 833.098206,103.709831 
	C834.508301,105.472473 835.743164,107.010292 836.971497,108.553284 
	C838.193298,110.087975 839.408569,111.627823 840.693665,113.249985 
	C834.200378,114.722725 834.267273,114.666039 830.190369,109.856964 
	C827.939209,107.201569 826.465881,103.246857 821.492798,103.692322 
	C822.766724,100.346375 824.286926,97.733086 828.575989,98.143326 
	C832.371948,98.506409 834.278259,95.947701 834.382935,92.210892 
	C834.492432,88.304695 832.758972,85.786240 828.680054,85.514877 
	C825.934875,85.332245 823.167664,85.480087 820.322998,85.480087 
	C820.322998,92.101852 820.322998,98.057976 820.322998,104.014099 
z"/>
<path fill="#362677" opacity="1.000000" stroke="none" 
	d="
M805.188721,83.818634 
	C810.519165,91.364891 809.708313,99.287323 807.230896,106.977394 
	C805.661255,111.849556 801.142761,113.817200 796.117676,113.969009 
	C791.643494,114.104179 787.161926,113.997391 782.059631,113.997391 
	C782.059631,104.108589 781.900940,94.386009 782.232971,84.680206 
	C782.281982,83.246376 784.495544,80.906380 785.975891,80.670815 
	C792.505859,79.631668 799.238953,78.555450 805.188721,83.818634 
M788.094543,89.820129 
	C788.094543,95.893570 788.094543,101.967010 788.094543,107.925598 
	C796.180664,109.547234 800.787354,108.678337 801.501221,104.552582 
	C802.353638,99.625977 802.568054,94.224274 801.425354,89.416618 
	C800.207275,84.291649 794.917053,85.203636 790.883179,85.540611 
	C789.867676,85.625435 789.020386,87.723061 788.094543,89.820129 
z"/>
<path fill="#362677" opacity="1.000000" stroke="none" 
	d="
M698.461548,113.887466 
	C695.384705,113.034180 692.742188,112.223480 689.166809,111.126564 
	C692.234009,108.307800 693.731628,105.603256 697.977783,107.913773 
	C700.023499,109.026939 703.215210,108.553314 705.744446,108.061058 
	C707.228943,107.772125 708.431458,106.034492 709.760803,104.948517 
	C708.657837,103.678833 707.794861,101.890373 706.402527,101.246346 
	C703.411560,99.862953 700.093384,99.208267 697.009094,98.000168 
	C692.934753,96.404228 689.494873,94.029053 689.961792,88.950562 
	C690.428772,83.870506 693.950928,81.428070 698.496277,80.521774 
	C704.294373,79.365662 709.990784,79.613098 715.386414,83.230614 
	C713.003113,86.213066 710.843994,88.294952 707.069702,85.861794 
	C706.201721,85.302254 704.801819,85.421112 703.656372,85.467270 
	C700.685791,85.586990 696.897583,85.355003 696.634766,89.152786 
	C696.544678,90.454674 700.143738,92.309898 702.315247,93.397369 
	C705.259521,94.871819 708.662170,95.485481 711.495361,97.116219 
	C718.025818,100.875076 717.882751,108.994667 710.983643,111.996086 
	C707.359741,113.572586 702.950439,113.343674 698.461548,113.887466 
z"/>
<path fill="#372073" opacity="1.000000" stroke="none" 
	d="
M778.500122,112.565125 
	C771.963989,113.057335 765.228821,113.429207 758.535950,113.051933 
	C757.266357,112.980370 755.206665,109.973579 755.144531,108.261848 
	C754.808105,98.992874 754.984924,89.705284 754.984924,80.235992 
	C757.177063,80.235992 758.914429,80.235992 761.033325,80.235992 
	C761.033325,89.567596 761.033325,98.676216 761.033325,108.649422 
	C765.148560,108.649422 768.911621,108.836227 772.646118,108.589890 
	C775.595703,108.395332 777.402954,109.442581 778.500122,112.565125 
z"/>
<path fill="#372073" opacity="1.000000" stroke="none" 
	d="
M663.941833,95.994530 
	C663.941833,90.533325 663.941833,85.569740 663.941833,80.307617 
	C666.011597,80.307617 667.746277,80.307617 670.020508,80.307617 
	C670.020508,89.492088 670.020508,98.718285 670.020508,107.571762 
	C675.831177,111.037872 684.124268,104.518944 688.186951,113.805038 
	C681.467102,113.805038 675.277893,114.071159 669.127380,113.699387 
	C665.753296,113.495445 663.943115,111.000511 663.950256,107.468040 
	C663.957642,103.809433 663.945435,100.150780 663.941833,95.994530 
z"/>
<path fill="#02F6FA" opacity="1.000000" stroke="none" 
	d="
M820.489014,104.018341 
	C820.322998,98.057976 820.322998,92.101852 820.322998,85.480087 
	C823.167664,85.480087 825.934875,85.332245 828.680054,85.514877 
	C832.758972,85.786240 834.492432,88.304695 834.382935,92.210892 
	C834.278259,95.947701 832.371948,98.506409 828.575989,98.143326 
	C824.286926,97.733086 822.766724,100.346375 821.095886,103.667877 
	C820.986633,104.004547 820.654968,104.022591 820.489014,104.018341 
z"/>
<path fill="#31F631" opacity="1.000000" stroke="none" 
	d="
M1706.863770,329.886475 
	C1706.489502,330.596130 1705.903320,331.269714 1705.775513,332.021240 
	C1704.918579,337.064606 1701.826050,337.908630 1697.047974,336.507690 
	C1700.393677,326.730530 1703.521240,316.952057 1707.200928,307.386047 
	C1707.920288,305.516266 1710.759888,303.388458 1712.661499,303.349792 
	C1714.554443,303.311279 1717.536987,305.348480 1718.244995,307.172852 
	C1721.953735,316.729797 1725.091919,326.508209 1728.547485,336.555664 
	C1724.906128,337.023560 1722.054443,338.209229 1720.124268,333.999084 
	C1719.598999,332.853333 1715.958252,333.215668 1713.784058,332.724030 
	C1711.518066,332.211670 1709.296387,331.503815 1707.400146,330.314117 
	C1709.787476,324.996307 1714.550903,328.098419 1717.921997,326.365051 
	C1716.297241,321.433258 1714.715576,316.632385 1713.133911,311.831512 
	C1712.798828,311.853149 1712.463623,311.874817 1712.128540,311.896454 
	C1710.373535,317.893127 1708.618652,323.889801 1706.863770,329.886475 
z"/>
<path fill="#00FBFB" opacity="1.000000" stroke="none" 
	d="
M512.227173,505.717682 
	C523.613708,523.632935 534.796082,541.247437 546.370911,559.480225 
	C519.562012,559.480225 493.696594,559.480225 466.774750,559.480225 
	C480.112946,538.477844 493.127350,517.985229 506.507599,496.916626 
	C508.614746,500.164215 510.318817,502.790588 512.227173,505.717682 
z"/>
<path fill="#F8F831" opacity="1.000000" stroke="none" 
	d="
M1716.053955,129.693024 
	C1714.026855,130.509705 1712.050537,130.864731 1708.972168,131.417725 
	C1712.928833,116.935661 1702.106323,108.403862 1697.512085,97.480766 
	C1701.962280,95.999260 1704.847290,97.165451 1706.811523,101.380760 
	C1708.345825,104.673492 1710.521118,107.667542 1712.773560,111.393074 
	C1714.909302,107.942261 1717.111816,105.024353 1718.620605,101.783401 
	C1720.522095,97.699150 1723.143311,95.843613 1728.276978,97.486641 
	C1725.668823,102.053391 1723.732056,107.130676 1720.364014,110.943703 
	C1715.429565,116.530022 1716.198486,122.845665 1716.053955,129.693024 
z"/>
<path fill="#3173F8" opacity="1.000000" stroke="none" 
	d="
M1616.840088,214.180862 
	C1616.754761,216.317963 1616.290527,218.417221 1617.060181,219.856369 
	C1619.477417,224.375687 1622.359009,228.646606 1625.107300,233.089188 
	C1619.008057,234.820526 1618.865234,234.756699 1615.877563,229.837067 
	C1614.079468,226.875854 1612.243408,223.937683 1609.975464,220.261642 
	C1607.834351,223.687103 1605.771118,226.440323 1604.297974,229.479568 
	C1602.329102,233.541229 1599.619385,235.204056 1594.719238,233.369232 
	C1596.540527,230.353180 1598.005737,227.160995 1600.156494,224.528976 
	C1604.282837,219.479095 1604.915649,214.844406 1600.431152,209.589645 
	C1598.219238,206.997711 1596.857910,203.679840 1595.057495,200.597504 
	C1599.951782,198.813751 1602.819214,200.421417 1604.746704,204.738129 
	C1606.023193,207.596771 1607.848145,210.210464 1609.880859,213.715637 
	C1611.848511,210.404175 1613.778442,207.751312 1615.083130,204.820129 
	C1617.020508,200.467819 1619.895752,198.809341 1624.912964,200.552383 
	C1622.254761,205.031006 1619.640259,209.435974 1616.840088,214.180862 
z"/>
<path fill="#FA3232" opacity="1.000000" stroke="none" 
	d="
M1826.569092,204.625641 
	C1826.782104,208.694534 1826.782104,212.443069 1826.782104,217.825409 
	C1828.765869,219.581619 1830.910522,223.484283 1828.640991,228.214478 
	C1826.312378,233.068237 1821.661987,233.962341 1816.795776,233.998535 
	C1812.343506,234.031647 1807.890747,234.005539 1802.960327,234.005539 
	C1802.960327,224.070129 1802.832520,214.633621 1803.093872,205.207886 
	C1803.134399,203.742279 1804.641724,201.830505 1806.004517,200.977066 
	C1810.625610,198.083008 1822.447510,200.193970 1826.569092,204.625641 
M1813.439087,205.374237 
	C1812.002197,206.054611 1809.352295,206.678696 1809.317749,207.424164 
	C1808.997559,214.322113 1809.128540,221.240982 1809.128540,228.293167 
	C1812.774048,228.293167 1815.863525,228.823044 1818.625854,228.101135 
	C1820.375854,227.643799 1821.638306,225.321732 1823.119385,223.835999 
	C1821.682739,222.477264 1820.461914,220.515182 1818.757446,219.905685 
	C1816.391113,219.059601 1813.661865,219.228745 1811.012451,218.955444 
	C1811.470703,214.736801 1813.861694,214.081192 1817.260254,213.800461 
	C1818.802368,213.673050 1821.222900,211.419083 1821.308228,210.012527 
	C1821.392822,208.614456 1819.212891,206.855606 1817.697021,205.678619 
	C1816.939209,205.090225 1815.447632,205.446686 1813.439087,205.374237 
z"/>
<path fill="#00FDFD" opacity="1.000000" stroke="none" 
	d="
M514.787476,769.812378 
	C512.037781,774.146484 509.478027,778.172119 506.549408,782.777771 
	C493.123199,761.644592 480.130890,741.194336 466.777191,720.175293 
	C493.492828,720.175293 519.399841,720.175293 546.357239,720.175293 
	C535.720459,736.896179 525.348877,753.200012 514.787476,769.812378 
z"/>
<path fill="#00FDFD" opacity="1.000000" stroke="none" 
	d="
M586.787781,655.999878 
	C586.787842,637.395386 586.787842,619.290955 586.787842,599.968018 
	C607.994568,613.416016 628.389587,626.349243 649.594360,639.796021 
	C628.616821,653.129578 608.149170,666.138977 586.787720,679.716553 
	C586.787720,671.309265 586.787720,663.904602 586.787781,655.999878 
z"/>
<path fill="#00FDFD" opacity="1.000000" stroke="none" 
	d="
M410.794861,609.785767 
	C415.838135,606.617310 420.570984,603.634277 425.952698,600.242310 
	C425.952698,626.916809 425.952698,652.734924 425.952698,679.440308 
	C405.102325,666.197205 384.624939,653.191040 363.581268,639.825134 
	C379.706726,629.561279 395.095581,619.766296 410.794861,609.785767 
z"/>
<path fill="#00F2F2" opacity="1.000000" stroke="none" 
	d="
M1166.031982,319.894287 
	C1162.073975,319.894287 1158.609131,319.894287 1154.823730,319.894287 
	C1154.823730,317.837158 1154.823730,316.119141 1154.823730,314.198059 
	C1172.650513,314.198059 1190.213989,314.198059 1208.079590,314.198059 
	C1208.079590,316.052277 1208.079590,317.778900 1208.079590,319.894287 
	C1194.054443,319.894287 1180.289795,319.894287 1166.031982,319.894287 
z"/>
<path fill="#00FBFB" opacity="1.000000" stroke="none" 
	d="
M1205.861572,299.000000 
	C1207.233276,300.648621 1208.118408,302.294678 1209.415771,304.707581 
	C1190.314209,304.707581 1172.728516,304.707581 1154.836426,304.707581 
	C1154.836426,302.874603 1154.836426,301.143158 1154.836426,298.997406 
	C1171.797241,298.997406 1188.586182,298.997406 1205.861572,299.000000 
z"/>
<path fill="#00FBFB" opacity="1.000000" stroke="none" 
	d="
M1156.129028,334.934692 
	C1155.161987,333.152496 1154.687134,331.398712 1154.082520,329.165649 
	C1172.532104,329.165649 1190.206299,329.165649 1208.108887,329.165649 
	C1208.108887,331.095490 1208.108887,332.825836 1208.108887,334.963135 
	C1190.789917,334.963135 1173.705444,334.963135 1156.129028,334.934692 
z"/>
<path fill="#00F2F2" opacity="1.000000" stroke="none" 
	d="
M778.853760,347.131683 
	C768.038574,347.131653 757.705505,347.147430 747.372498,347.125275 
	C741.754272,347.113220 740.504028,345.928986 740.474731,340.514099 
	C740.433228,332.847870 740.555359,325.179749 740.429932,317.515350 
	C740.359009,313.185242 741.987244,311.073334 746.567078,311.125916 
	C758.398499,311.261749 770.233643,311.260620 782.065125,311.126282 
	C786.616394,311.074615 788.303162,313.102631 788.208008,317.481323 
	C788.055908,324.477844 788.168396,331.480072 788.167664,338.479889 
	C788.166748,346.772797 787.807495,347.124054 778.853760,347.131683 
M782.276062,318.719696 
	C781.245911,318.191833 780.235352,317.259583 779.182190,317.208679 
	C775.365356,317.024170 771.534241,317.135132 767.708557,317.135040 
	C760.630859,317.134888 753.553162,317.135010 746.455994,317.135010 
	C746.455994,325.442932 746.455994,333.016571 746.455994,340.747314 
	C758.455566,340.747314 770.187012,340.747314 781.847168,340.747314 
	C782.038757,340.225769 782.238281,339.933807 782.239990,339.640717 
	C782.278381,332.988647 782.295105,326.336456 782.276062,318.719696 
z"/>
<path fill="#00F2F2" opacity="1.000000" stroke="none" 
	d="
M717.674072,321.399109 
	C717.034851,318.366669 716.467529,315.637146 716.409485,312.896851 
	C716.268677,306.251831 716.348755,299.601746 716.371826,292.953827 
	C716.385193,289.111877 718.338196,287.152344 722.199890,287.151398 
	C733.335327,287.148712 744.470703,287.141327 755.606140,287.156128 
	C759.484131,287.161285 761.348755,289.185974 761.333313,293.023590 
	C761.325989,294.837616 761.332092,296.651672 761.332092,298.918976 
	C759.362610,299.008850 757.634827,299.087708 755.620361,299.179657 
	C755.344116,297.174957 755.103943,295.432281 754.826599,293.419739 
	C744.209534,293.419739 733.646118,293.419739 722.704346,293.419739 
	C722.704346,301.108398 722.704346,308.674133 722.704346,316.654602 
	C724.123047,316.867706 725.839050,317.125458 727.986389,317.448029 
	C728.063293,319.109039 728.142639,320.822388 728.272644,323.630890 
	C724.484314,322.919312 721.230957,322.308228 717.674072,321.399109 
z"/>
<path fill="#02F6FA" opacity="1.000000" stroke="none" 
	d="
M1228.101685,108.459946 
	C1225.074097,108.552895 1222.452759,108.552895 1219.464844,108.552895 
	C1219.464844,100.863358 1219.464844,93.508232 1219.464844,86.136223 
	C1226.634766,84.223618 1231.111084,85.408646 1232.780518,89.683838 
	C1235.367798,96.309509 1233.253296,105.555931 1228.101685,108.459946 
z"/>
<path fill="#02F6FA" opacity="1.000000" stroke="none" 
	d="
M788.095154,89.357918 
	C789.020386,87.723061 789.867676,85.625435 790.883179,85.540611 
	C794.917053,85.203636 800.207275,84.291649 801.425354,89.416618 
	C802.568054,94.224274 802.353638,99.625977 801.501221,104.552582 
	C800.787354,108.678337 796.180664,109.547234 788.094543,107.925598 
	C788.094543,101.967010 788.094543,95.893570 788.095154,89.357918 
z"/>
<path fill="#013401" opacity="1.000000" stroke="none" 
	d="
M1706.916382,329.930054 
	C1708.618652,323.889801 1710.373535,317.893127 1712.128540,311.896454 
	C1712.463623,311.874817 1712.798828,311.853149 1713.133911,311.831512 
	C1714.715576,316.632385 1716.297241,321.433258 1717.921997,326.365051 
	C1714.550903,328.098419 1709.787476,324.996307 1707.409424,329.904297 
	C1707.073975,330.061768 1706.969116,329.973633 1706.916382,329.930054 
z"/>
<path fill="#420404" opacity="1.000000" stroke="none" 
	d="
M1813.863525,205.375031 
	C1815.447632,205.446686 1816.939209,205.090225 1817.697021,205.678619 
	C1819.212891,206.855606 1821.392822,208.614456 1821.308228,210.012527 
	C1821.222900,211.419083 1818.802368,213.673050 1817.260254,213.800461 
	C1813.861694,214.081192 1811.470703,214.736801 1811.012451,218.955444 
	C1813.661865,219.228745 1816.391113,219.059601 1818.757446,219.905685 
	C1820.461914,220.515182 1821.682739,222.477264 1823.119385,223.835999 
	C1821.638306,225.321732 1820.375854,227.643799 1818.625854,228.101135 
	C1815.863525,228.823044 1812.774048,228.293167 1809.128540,228.293167 
	C1809.128540,221.240982 1808.997559,214.322113 1809.317749,207.424164 
	C1809.352295,206.678696 1812.002197,206.054611 1813.863525,205.375031 
z"/>
<path fill="#010404" opacity="1.000000" stroke="none" 
	d="
M782.295959,319.201965 
	C782.295105,326.336456 782.278381,332.988647 782.239990,339.640717 
	C782.238281,339.933807 782.038757,340.225769 781.847168,340.747314 
	C770.187012,340.747314 758.455566,340.747314 746.455994,340.747314 
	C746.455994,333.016571 746.455994,325.442932 746.455994,317.135010 
	C753.553162,317.135010 760.630859,317.134888 767.708557,317.135040 
	C771.534241,317.135132 775.365356,317.024170 779.182190,317.208679 
	C780.235352,317.259583 781.245911,318.191833 782.295959,319.201965 
z"/>
</svg>