<svg width="640" height="360" viewBox="0 0 640 360" fill="none" xmlns="http://www.w3.org/2000/svg">
<g clip-path="url(#clip0_0_1)">
<circle cx="507.802" cy="86.1961" r="25.1961" fill="#E6FF00" stroke="#5A6400" stroke-width="4"/>
<circle cx="562.194" cy="140.806" r="25.1961" fill="#FF0000" stroke="#770000" stroke-width="4"/>
<circle cx="507.802" cy="189.155" r="25.1961" fill="#91FF00" stroke="#3C6900" stroke-width="4"/>
<circle cx="454.92" cy="139.295" r="25.1961" fill="#00A8FF" stroke="#00476C" stroke-width="4"/>
<circle cx="201.078" cy="217.196" r="27.1961" fill="black"/>
<path d="M201.5 195L220.12 227.25H182.88L201.5 195Z" fill="#D9D9D9"/>
<circle cx="255.47" cy="271.806" r="27.1961" fill="black"/>
<path d="M277 271.5L244.75 290.12V252.88L277 271.5Z" fill="#D9D9D9"/>
<circle cx="201.078" cy="320.155" r="27.1961" fill="url(#paint0_radial_0_1)"/>
<path d="M201.5 341L182.88 308.75H220.12L201.5 341Z" fill="#D9D9D9"/>
<circle cx="148.196" cy="270.295" r="27.1961" fill="black"/>
<path d="M127 271.5L159.25 252.88V290.12L127 271.5Z" fill="#D9D9D9"/>
<circle cx="362.756" cy="137.785" r="16.6199" fill="black"/>
<circle cx="249.438" cy="137.785" r="16.6199" fill="black"/>
<circle cx="105.903" cy="136.274" r="42.3051" fill="url(#paint1_radial_0_1)"/>
<circle cx="105.903" cy="136.274" r="30.2179" fill="#717171"/>
<circle cx="410.305" cy="256.305" r="42.3051" fill="url(#paint2_radial_0_1)"/>
<circle cx="410.305" cy="256.305" r="30.2179" fill="#717171"/>
<g clip-path="url(#clip1_0_1)">
<rect x="328" y="39" width="102" height="40" rx="20" fill="black"/>
</g>
<g clip-path="url(#clip2_0_1)">
<rect x="183" y="39" width="101" height="40" rx="20" fill="black"/>
</g>
</g>
<defs>
<radialGradient id="paint0_radial_0_1" cx="0" cy="0" r="1" gradientUnits="userSpaceOnUse" gradientTransform="translate(216.186 305.046) rotate(136.397) scale(43.816)">
<stop offset="0.275088"/>
<stop offset="1"/>
</radialGradient>
<radialGradient id="paint1_radial_0_1" cx="0" cy="0" r="1" gradientUnits="userSpaceOnUse" gradientTransform="translate(105.903 136.274) rotate(90) scale(42.3051)">
<stop offset="0.71802" stop-color="#212121"/>
<stop offset="1" stop-color="#3A3A3A"/>
</radialGradient>
<radialGradient id="paint2_radial_0_1" cx="0" cy="0" r="1" gradientUnits="userSpaceOnUse" gradientTransform="translate(410.305 256.305) rotate(90) scale(42.3051)">
<stop offset="0.71802" stop-color="#212121"/>
<stop offset="1" stop-color="#3A3A3A"/>
</radialGradient>
<clipPath id="clip0_0_1">
<rect width="360" height="640" fill="white" transform="matrix(0 -1 1 0 0 360)"/>
</clipPath>
<clipPath id="clip1_0_1">
<rect x="328" y="39" width="102" height="40" rx="20" fill="white"/>
</clipPath>
<clipPath id="clip2_0_1">
<rect x="183" y="39" width="101" height="40" rx="20" fill="white"/>
</clipPath>
</defs>
</svg>
