<svg version="1.1" id="Layer_1" xmlns="http://www.w3.org/2000/svg" xmlns:xlink="http://www.w3.org/1999/xlink" x="0px" y="0px"
	 width="100%" viewBox="0 0 1931 858" enable-background="new 0 0 1931 858" xml:space="preserve">
<path fill="#FAFAFA" opacity="1.000000" stroke="none" 
	d="
M1311.000000,859.000000 
	C874.000000,859.000000 437.500000,859.000000 1.000000,859.000000 
	C1.000000,573.000000 1.000000,287.000000 1.000000,1.000000 
	C644.666687,1.000000 1288.333374,1.000000 1932.000000,1.000000 
	C1932.000000,287.000000 1932.000000,573.000000 1932.000000,859.000000 
	C1725.166626,859.000000 1518.333374,859.000000 1311.000000,859.000000 
M1495.034790,437.468689 
	C1466.181274,435.720703 1438.316895,439.920135 1411.514771,450.996857 
	C1337.596680,481.545410 1288.051025,556.055481 1296.355835,643.195679 
	C1300.505737,686.738892 1318.521606,724.511536 1349.418945,755.660156 
	C1405.417114,812.113525 1485.811646,825.370911 1553.715454,797.315002 
	C1631.767822,765.065979 1675.156128,688.397827 1669.230225,610.601807 
	C1666.433105,573.882446 1654.335693,540.665161 1632.008545,511.577332 
	C1597.725220,466.912994 1552.268188,442.097168 1495.034790,437.468689 
M48.959629,245.446686 
	C49.831413,267.476715 54.787777,288.628296 63.452755,308.820618 
	C102.272751,399.284241 201.689392,443.989380 295.286591,413.229340 
	C402.016632,378.153259 453.872772,254.413620 404.149780,153.719086 
	C367.782166,80.070671 287.013672,35.739967 200.979813,52.028313 
	C148.351700,61.992123 107.464485,90.225204 78.266342,134.869446 
	C56.583405,168.022858 47.196712,204.846954 48.959629,245.446686 
M1047.043823,128.432678 
	C1056.223633,138.926529 1067.980713,143.076859 1081.695435,143.059448 
	C1147.671265,142.975754 1213.647095,143.022614 1279.622925,143.017761 
	C1281.454956,143.017624 1283.291016,143.024109 1285.118408,142.914322 
	C1310.329834,141.399612 1328.906982,119.046906 1325.405884,94.461159 
	C1322.243530,72.253838 1304.287231,57.116436 1280.741699,57.095764 
	C1214.266113,57.037395 1147.790405,57.047508 1081.314941,57.139996 
	C1077.030640,57.145954 1072.594849,57.530167 1068.488281,58.670410 
	C1037.401245,67.302399 1026.362183,102.415756 1047.043823,128.432678 
M647.224976,57.630630 
	C620.627686,60.780334 603.432373,87.495193 611.569092,113.026131 
	C617.495361,131.621216 633.435730,142.985336 654.035522,143.001907 
	C719.345459,143.054428 784.655396,143.022263 849.965332,143.015106 
	C851.463623,143.014938 852.966980,142.986389 854.459412,142.864792 
	C886.289429,140.271454 904.424622,106.506340 888.529602,78.808128 
	C879.919128,63.803761 866.154785,57.083187 849.014648,57.080257 
	C784.371155,57.069202 719.727661,57.071568 655.084167,57.092087 
	C652.758057,57.092823 650.432007,57.337132 647.224976,57.630630 
M1732.393433,257.026031 
	C1722.985962,254.614655 1713.582886,253.699249 1703.785767,254.860428 
	C1664.128540,259.560699 1636.601318,299.518860 1645.479370,338.434204 
	C1652.676392,369.981964 1684.962280,397.130493 1723.553345,391.152222 
	C1758.919067,385.673615 1788.169312,351.194153 1780.362183,310.470001 
	C1775.216309,283.627655 1758.594971,266.376465 1732.393433,257.026031 
M561.748962,495.762543 
	C544.849426,474.483368 523.044861,465.303406 495.962311,468.964691 
	C463.754639,473.318817 432.613129,504.006256 438.409119,545.955750 
	C443.766418,584.730286 476.817688,609.585449 515.575256,604.937256 
	C541.609253,601.815063 559.886536,587.127747 569.850037,563.412476 
	C579.643860,540.101196 577.104309,517.286377 561.748962,495.762543 
M1762.358765,176.866135 
	C1748.488281,194.187653 1743.748901,213.846481 1748.708984,235.355011 
	C1757.198730,272.168701 1792.027222,295.203461 1828.943604,287.679260 
	C1857.174561,281.925323 1875.900391,264.249451 1882.563110,236.155075 
	C1889.328613,207.627319 1880.276123,183.276566 1857.154785,165.328384 
	C1827.665894,142.437469 1787.817139,147.503433 1762.358765,176.866135 
M1625.380737,153.037430 
	C1617.291992,152.677414 1609.100342,151.312195 1601.131714,152.127075 
	C1561.349243,156.195297 1533.638428,196.441635 1542.460327,235.280014 
	C1549.695435,267.131866 1581.993286,293.964478 1620.494751,288.174103 
	C1658.218018,282.500793 1685.685425,244.110626 1677.284180,206.972595 
	C1670.957764,179.007111 1653.727173,161.138901 1625.380737,153.037430 
M446.219147,693.735413 
	C464.473236,678.640808 473.219971,659.432068 472.106506,635.594727 
	C470.157867,593.877136 429.153046,562.886780 388.593506,572.728333 
	C351.745514,581.669373 330.094177,614.198303 335.931000,651.848633 
	C343.745667,702.257141 405.586060,726.092529 446.219147,693.735413 
M677.010071,653.383362 
	C677.400696,649.253784 678.021545,645.131226 678.146545,640.993591 
	C679.484680,596.710815 637.340698,562.407898 594.425354,572.787964 
	C557.483826,581.723022 535.865967,614.602539 541.974792,652.562073 
	C548.320190,691.991577 592.282471,718.522705 630.063232,705.522766 
	C654.905884,696.974609 670.627930,679.850281 677.010071,653.383362 
M1722.462036,49.010441 
	C1716.177612,49.002930 1709.824585,48.387756 1703.619751,49.086895 
	C1664.490967,53.495777 1636.734009,93.352112 1645.291626,131.706909 
	C1652.754761,165.156464 1685.629028,190.922318 1723.208984,185.176788 
	C1764.711914,178.831528 1791.699585,136.221069 1778.222412,96.257042 
	C1769.356567,69.966988 1750.701294,54.241707 1722.462036,49.010441 
M526.960083,808.623535 
	C559.054626,797.856750 579.400513,768.300110 574.707336,733.012634 
	C569.760803,695.820129 534.169312,669.023743 496.295319,674.843323 
	C453.824463,681.369202 427.108215,725.241028 441.573639,765.648987 
	C452.769989,796.924866 486.615845,819.505920 526.960083,808.623535 
M720.268616,360.258606 
	C733.525940,370.036072 748.340515,372.962921 764.252625,369.461090 
	C787.341797,364.379730 804.985901,343.754272 806.015991,321.264282 
	C807.216736,295.051300 793.116882,273.700500 769.295593,265.660034 
	C746.568298,257.988831 721.523376,266.617157 707.643982,286.585846 
	C694.116821,306.047699 693.416626,339.379059 720.268616,360.258606 
M1235.065186,321.343414 
	C1234.926636,316.852600 1235.292114,312.278809 1234.568604,307.884308 
	C1229.584717,277.612091 1201.070190,258.245758 1170.327271,264.045044 
	C1141.941528,269.399689 1122.711914,298.696594 1128.572632,327.659821 
	C1133.836792,353.674988 1157.393555,372.036804 1183.901978,370.787598 
	C1210.779541,369.520996 1232.386597,349.024170 1235.065186,321.343414 
z"/>
<path fill="#FCD504" opacity="1.000000" stroke="none" 
	d="
M1495.491943,437.542786 
	C1552.268188,442.097168 1597.725220,466.912994 1632.008545,511.577332 
	C1654.335693,540.665161 1666.433105,573.882446 1669.230225,610.601807 
	C1675.156128,688.397827 1631.767822,765.065979 1553.715454,797.315002 
	C1485.811646,825.370911 1405.417114,812.113525 1349.418945,755.660156 
	C1318.521606,724.511536 1300.505737,686.738892 1296.355835,643.195679 
	C1288.051025,556.055481 1337.596680,481.545410 1411.514771,450.996857 
	C1438.316895,439.920135 1466.181274,435.720703 1495.491943,437.542786 
M1500.000122,446.203278 
	C1480.997803,445.503601 1462.117798,445.733887 1443.377197,449.953400 
	C1349.082153,471.184448 1288.092163,564.706421 1307.385864,659.085693 
	C1327.536255,757.656128 1423.092651,821.147766 1523.788452,797.873047 
	C1617.401611,776.235535 1677.073364,683.244507 1657.609009,588.842407 
	C1646.180908,533.416748 1614.425903,492.418701 1564.519775,465.626953 
	C1544.620728,454.944275 1523.155273,449.308044 1500.000122,446.203278 
z"/>
<path fill="#FCD504" opacity="1.000000" stroke="none" 
	d="
M48.955284,244.954041 
	C47.196712,204.846954 56.583405,168.022858 78.266342,134.869446 
	C107.464485,90.225204 148.351700,61.992123 200.979813,52.028313 
	C287.013672,35.739967 367.782166,80.070671 404.149780,153.719086 
	C453.872772,254.413620 402.016632,378.153259 295.286591,413.229340 
	C201.689392,443.989380 102.272751,399.284241 63.452755,308.820618 
	C54.787777,288.628296 49.831413,267.476715 48.955284,244.954041 
M224.668015,414.019318 
	C235.305649,413.693817 246.031616,414.130676 256.565521,412.910004 
	C300.664032,407.799805 337.875305,388.682007 367.668518,355.813965 
	C408.189972,311.110382 422.333313,258.278046 410.524750,199.740784 
	C389.985840,97.925484 287.297913,33.502785 182.884079,65.350632 
	C95.370972,92.043488 43.339653,178.868820 60.694782,270.390717 
	C68.551300,311.821899 89.360138,346.023682 121.682632,373.011139 
	C151.196365,397.653351 185.450150,410.927521 224.668015,414.019318 
z"/>
<path fill="#F0D00E" opacity="1.000000" stroke="none" 
	d="
M1046.818848,128.155167 
	C1026.362183,102.415756 1037.401245,67.302399 1068.488281,58.670410 
	C1072.594849,57.530167 1077.030640,57.145954 1081.314941,57.139996 
	C1147.790405,57.047508 1214.266113,57.037395 1280.741699,57.095764 
	C1304.287231,57.116436 1322.243530,72.253838 1325.405884,94.461159 
	C1328.906982,119.046906 1310.329834,141.399612 1285.118408,142.914322 
	C1283.291016,143.024109 1281.454956,143.017624 1279.622925,143.017761 
	C1213.647095,143.022614 1147.671265,142.975754 1081.695435,143.059448 
	C1067.980713,143.076859 1056.223633,138.926529 1046.818848,128.155167 
M1315.847412,80.806351 
	C1307.589966,67.720657 1295.781738,61.756088 1280.261719,61.798615 
	C1214.099365,61.979912 1147.936279,61.872837 1081.773438,61.887676 
	C1079.442993,61.888199 1077.101562,61.950977 1074.783936,62.176605 
	C1048.699585,64.715988 1032.755859,94.788010 1045.437500,117.667580 
	C1053.410522,132.051895 1066.071167,138.156845 1082.204712,138.144791 
	C1148.034180,138.095566 1213.863770,138.125504 1279.693237,138.117477 
	C1281.358032,138.117279 1283.029541,138.092209 1284.686768,137.949585 
	C1313.719116,135.450516 1329.730103,106.699135 1315.847412,80.806351 
z"/>
<path fill="#F0D00E" opacity="1.000000" stroke="none" 
	d="
M647.665466,57.549274 
	C650.432007,57.337132 652.758057,57.092823 655.084167,57.092087 
	C719.727661,57.071568 784.371155,57.069202 849.014648,57.080257 
	C866.154785,57.083187 879.919128,63.803761 888.529602,78.808128 
	C904.424622,106.506340 886.289429,140.271454 854.459412,142.864792 
	C852.966980,142.986389 851.463623,143.014938 849.965332,143.015106 
	C784.655396,143.022263 719.345459,143.054428 654.035522,143.001907 
	C633.435730,142.985336 617.495361,131.621216 611.569092,113.026131 
	C603.432373,87.495193 620.627686,60.780334 647.665466,57.549274 
M625.511536,73.021416 
	C612.253723,85.994972 611.623596,106.711311 619.633972,119.424980 
	C627.951111,132.625626 640.153564,138.156891 655.419861,138.145020 
	C719.727905,138.094971 784.035950,138.124756 848.343994,138.118729 
	C849.842102,138.118591 851.345154,138.104752 852.837585,137.989441 
	C879.837585,135.902924 895.997864,111.722336 886.941956,86.437401 
	C882.159729,73.085068 869.070557,61.711002 849.565674,61.784439 
	C784.592102,62.029076 719.617126,61.902935 654.642639,61.851013 
	C643.713135,61.842281 633.925598,64.562302 625.511536,73.021416 
z"/>
<path fill="#F5D106" opacity="1.000000" stroke="none" 
	d="
M1732.788330,257.109070 
	C1758.594971,266.376465 1775.216309,283.627655 1780.362183,310.470001 
	C1788.169312,351.194153 1758.919067,385.673615 1723.553345,391.152222 
	C1684.962280,397.130493 1652.676392,369.981964 1645.479370,338.434204 
	C1636.601318,299.518860 1664.128540,259.560699 1703.785767,254.860428 
	C1713.582886,253.699249 1722.985962,254.614655 1732.788330,257.109070 
M1744.105957,267.246552 
	C1698.618042,244.426331 1648.272461,274.554474 1648.921021,324.207855 
	C1649.274170,351.254791 1666.130249,374.660339 1691.568970,383.427338 
	C1717.494141,392.361969 1746.272339,384.033173 1763.029297,362.745667 
	C1787.207275,332.030701 1778.932251,289.083130 1744.105957,267.246552 
z"/>
<path fill="#F4CF07" opacity="1.000000" stroke="none" 
	d="
M561.942932,496.061829 
	C577.104309,517.286377 579.643860,540.101196 569.850037,563.412476 
	C559.886536,587.127747 541.609253,601.815063 515.575256,604.937256 
	C476.817688,609.585449 443.766418,584.730286 438.409119,545.955750 
	C432.613129,504.006256 463.754639,473.318817 495.962311,468.964691 
	C523.044861,465.303406 544.849426,474.483368 561.942932,496.061829 
M538.569275,592.138916 
	C562.255920,577.196045 573.432190,555.739075 569.721008,527.950073 
	C566.292053,502.275116 551.237305,484.546234 526.826782,476.471802 
	C502.072205,468.283508 479.384552,473.549164 460.852509,492.474976 
	C442.568665,511.147308 438.146515,533.710510 446.263977,557.955811 
	C458.915710,595.743896 501.648163,611.455933 538.569275,592.138916 
z"/>
<path fill="#F6CF06" opacity="1.000000" stroke="none" 
	d="
M1762.590576,176.595764 
	C1787.817139,147.503433 1827.665894,142.437469 1857.154785,165.328384 
	C1880.276123,183.276566 1889.328613,207.627319 1882.563110,236.155075 
	C1875.900391,264.249451 1857.174561,281.925323 1828.943604,287.679260 
	C1792.027222,295.203461 1757.198730,272.168701 1748.708984,235.355011 
	C1743.748901,213.846481 1748.488281,194.187653 1762.590576,176.595764 
M1822.132080,283.963135 
	C1824.920654,283.498413 1827.765137,283.247284 1830.489136,282.535614 
	C1854.129395,276.359375 1870.240967,261.640564 1876.966187,238.272385 
	C1883.962646,213.962219 1878.307007,192.124863 1859.974854,174.167801 
	C1838.365234,153.000595 1803.359009,150.247452 1779.228149,167.656906 
	C1753.193237,186.439774 1743.890137,220.116516 1758.113647,247.896408 
	C1771.115112,273.289368 1792.412354,285.525482 1822.132080,283.963135 
z"/>
<path fill="#F4CF08" opacity="1.000000" stroke="none" 
	d="
M1625.790771,153.106430 
	C1653.727173,161.138901 1670.957764,179.007111 1677.284180,206.972595 
	C1685.685425,244.110626 1658.218018,282.500793 1620.494751,288.174103 
	C1581.993286,293.964478 1549.695435,267.131866 1542.460327,235.280014 
	C1533.638428,196.441635 1561.349243,156.195297 1601.131714,152.127075 
	C1609.100342,151.312195 1617.291992,152.677414 1625.790771,153.106430 
M1551.674561,193.313309 
	C1546.415527,204.106110 1545.028809,215.611694 1546.183350,227.353149 
	C1549.644165,262.553619 1583.553711,289.051514 1618.051636,283.759277 
	C1655.563232,278.004700 1680.038208,243.627762 1672.445557,207.358719 
	C1666.886353,180.802200 1645.153687,160.309296 1619.022339,156.983032 
	C1590.221436,153.316956 1564.733521,166.866821 1551.674561,193.313309 
z"/>
<path fill="#F3CF07" opacity="1.000000" stroke="none" 
	d="
M445.922180,693.932007 
	C405.586060,726.092529 343.745667,702.257141 335.931000,651.848633 
	C330.094177,614.198303 351.745514,581.669373 388.593506,572.728333 
	C429.153046,562.886780 470.157867,593.877136 472.106506,635.594727 
	C473.219971,659.432068 464.473236,678.640808 445.922180,693.932007 
M362.907745,590.369690 
	C344.901581,605.758911 337.291687,625.372925 340.288788,648.710510 
	C344.862274,684.322815 378.401764,708.616333 414.336365,702.847900 
	C449.239471,697.245056 473.222168,662.637878 466.424683,627.684143 
	C457.189636,580.196045 402.553558,560.157349 362.907745,590.369690 
z"/>
<path fill="#F3CF07" opacity="1.000000" stroke="none" 
	d="
M676.970581,653.810974 
	C670.627930,679.850281 654.905884,696.974609 630.063232,705.522766 
	C592.282471,718.522705 548.320190,691.991577 541.974792,652.562073 
	C535.865967,614.602539 557.483826,581.723022 594.425354,572.787964 
	C637.340698,562.407898 679.484680,596.710815 678.146545,640.993591 
	C678.021545,645.131226 677.400696,649.253784 676.970581,653.810974 
M663.023193,604.583313 
	C649.838989,585.874023 632.042297,575.788940 608.920837,575.909302 
	C580.878784,576.055237 555.570435,595.060974 548.097229,621.422668 
	C540.189392,649.317810 551.152771,678.521545 575.274963,693.816772 
	C600.411438,709.755310 633.018616,706.260864 654.327209,685.345032 
	C676.104126,663.969482 679.764893,631.665222 663.023193,604.583313 
z"/>
<path fill="#F6D106" opacity="1.000000" stroke="none" 
	d="
M1722.895752,49.037609 
	C1750.701294,54.241707 1769.356567,69.966988 1778.222412,96.257042 
	C1791.699585,136.221069 1764.711914,178.831528 1723.208984,185.176788 
	C1685.629028,190.922318 1652.754761,165.156464 1645.291626,131.706909 
	C1636.734009,93.352112 1664.490967,53.495777 1703.619751,49.086895 
	C1709.824585,48.387756 1716.177612,49.002930 1722.895752,49.037609 
M1711.562744,181.093262 
	C1718.454102,180.165588 1725.619873,180.144547 1732.190063,178.155838 
	C1763.215454,168.764877 1782.133301,136.031860 1775.404541,104.284019 
	C1768.409790,71.281044 1738.594238,50.148594 1704.944214,53.756489 
	C1674.941406,56.973331 1646.310059,84.556160 1648.918091,122.845039 
	C1651.018433,153.678757 1678.717041,180.325317 1711.562744,181.093262 
z"/>
<path fill="#F3CF07" opacity="1.000000" stroke="none" 
	d="
M526.577881,808.758789 
	C486.615845,819.505920 452.769989,796.924866 441.573639,765.648987 
	C427.108215,725.241028 453.824463,681.369202 496.295319,674.843323 
	C534.169312,669.023743 569.760803,695.820129 574.707336,733.012634 
	C579.400513,768.300110 559.054626,797.856750 526.577881,808.758789 
M444.097046,757.109375 
	C451.636597,790.586060 487.511871,816.582275 527.379639,803.232788 
	C560.288269,792.213501 578.239807,755.956238 567.566895,723.024963 
	C556.805359,689.820129 521.329285,671.471985 487.559113,681.645142 
	C456.154114,691.105713 438.211365,721.824768 444.097046,757.109375 
z"/>
<path fill="#FFD90D" opacity="1.000000" stroke="none" 
	d="
M719.969238,360.062683 
	C693.416626,339.379059 694.116821,306.047699 707.643982,286.585846 
	C721.523376,266.617157 746.568298,257.988831 769.295593,265.660034 
	C793.116882,273.700500 807.216736,295.051300 806.015991,321.264282 
	C804.985901,343.754272 787.341797,364.379730 764.252625,369.461090 
	C748.340515,372.962921 733.525940,370.036072 719.969238,360.062683 
M769.508545,270.765442 
	C737.743042,260.541870 707.802979,278.812958 703.687378,311.486481 
	C701.190735,331.307343 709.119629,347.143585 725.584778,358.048889 
	C741.795288,368.785431 759.327271,369.323883 776.133606,359.831512 
	C793.834290,349.833954 802.586060,334.015228 801.122864,313.385040 
	C799.673584,292.950500 788.443420,279.374573 769.508545,270.765442 
z"/>
<path fill="#FFD90D" opacity="1.000000" stroke="none" 
	d="
M1235.045898,321.816650 
	C1232.386597,349.024170 1210.779541,369.520996 1183.901978,370.787598 
	C1157.393555,372.036804 1133.836792,353.674988 1128.572632,327.659821 
	C1122.711914,298.696594 1141.941528,269.399689 1170.327271,264.045044 
	C1201.070190,258.245758 1229.584717,277.612091 1234.568604,307.884308 
	C1235.292114,312.278809 1234.926636,316.852600 1235.045898,321.816650 
M1172.442627,268.751770 
	C1146.016602,273.063354 1128.769165,298.212402 1133.084717,326.140717 
	C1136.864502,350.601410 1162.631226,369.287445 1187.802979,365.822266 
	C1215.586670,361.997559 1234.077026,336.787628 1229.880737,308.453217 
	C1226.026001,282.425476 1200.038208,264.105469 1172.442627,268.751770 
z"/>
<path fill="#011227" opacity="1.000000" stroke="none" 
	d="
M1500.450439,446.267822 
	C1523.155273,449.308044 1544.620728,454.944275 1564.519775,465.626953 
	C1614.425903,492.418701 1646.180908,533.416748 1657.609009,588.842407 
	C1677.073364,683.244507 1617.401611,776.235535 1523.788452,797.873047 
	C1423.092651,821.147766 1327.536255,757.656128 1307.385864,659.085693 
	C1288.092163,564.706421 1349.082153,471.184448 1443.377197,449.953400 
	C1462.117798,445.733887 1480.997803,445.503601 1500.450439,446.267822 
M1554.058228,623.527710 
	C1553.710815,619.392944 1553.731934,615.187866 1552.958740,611.134338 
	C1545.804688,573.634338 1509.250000,546.198547 1467.807251,554.923584 
	C1434.322021,561.973389 1411.026611,593.210815 1411.766479,625.689575 
	C1412.679688,665.782410 1446.421997,698.136658 1486.324951,695.866760 
	C1524.969849,693.668396 1553.836670,663.254333 1554.058228,623.527710 
z"/>
<path fill="#011227" opacity="1.000000" stroke="none" 
	d="
M224.191040,414.013733 
	C185.450150,410.927521 151.196365,397.653351 121.682632,373.011139 
	C89.360138,346.023682 68.551300,311.821899 60.694782,270.390717 
	C43.339653,178.868820 95.370972,92.043488 182.884079,65.350632 
	C287.297913,33.502785 389.985840,97.925484 410.524750,199.740784 
	C422.333313,258.278046 408.189972,311.110382 367.668518,355.813965 
	C337.875305,388.682007 300.664032,407.799805 256.565521,412.910004 
	C246.031616,414.130676 235.305649,413.693817 224.191040,414.013733 
M305.746735,219.934692 
	C296.844330,183.502899 263.593170,161.019501 228.103210,165.331406 
	C184.218903,170.663162 159.766159,210.047516 165.846268,247.480591 
	C171.930252,284.937408 206.786667,313.446472 248.319397,306.297455 
	C289.254913,299.251282 313.275635,262.714874 305.746735,219.934692 
z"/>
<path fill="#055DC2" opacity="1.000000" stroke="none" 
	d="
M1315.994751,81.146835 
	C1329.730103,106.699135 1313.719116,135.450516 1284.686768,137.949585 
	C1283.029541,138.092209 1281.358032,138.117279 1279.693237,138.117477 
	C1213.863770,138.125504 1148.034180,138.095566 1082.204712,138.144791 
	C1066.071167,138.156845 1053.410522,132.051895 1045.437500,117.667580 
	C1032.755859,94.788010 1048.699585,64.715988 1074.783936,62.176605 
	C1077.101562,61.950977 1079.442993,61.888199 1081.773438,61.887676 
	C1147.936279,61.872837 1214.099365,61.979912 1280.261719,61.798615 
	C1295.781738,61.756088 1307.589966,67.720657 1315.994751,81.146835 
M1098.303833,104.211372 
	C1102.633301,103.370316 1104.689697,106.471992 1106.509155,109.362656 
	C1109.263916,113.739372 1112.880859,114.958534 1118.175171,113.479660 
	C1115.437378,110.098587 1112.897583,106.962029 1110.242554,103.683296 
	C1116.638550,100.456680 1118.678223,95.561180 1117.748901,89.337959 
	C1117.037476,84.573593 1113.387695,80.814178 1108.423706,80.260185 
	C1104.320190,79.802238 1100.025146,79.548874 1096.026123,80.311623 
	C1094.058228,80.686974 1091.191528,83.495110 1091.093994,85.328156 
	C1090.593750,94.721809 1090.862427,104.156403 1090.862427,113.725861 
	C1093.141968,113.725861 1095.035889,113.725861 1097.025391,113.725861 
	C1097.216064,110.327293 1097.391357,107.204079 1097.507202,104.056389 
	C1097.507202,104.056389 1097.463135,104.103333 1098.303833,104.211372 
M1252.303833,104.211372 
	C1256.633301,103.370316 1258.689697,106.471992 1260.509155,109.362656 
	C1263.263916,113.739372 1266.880859,114.958534 1272.174927,113.479744 
	C1269.437134,110.098755 1266.897339,106.962181 1264.242432,103.683395 
	C1270.638550,100.456680 1272.678101,95.561180 1271.748901,89.337967 
	C1271.037476,84.573586 1267.387695,80.814186 1262.423706,80.260185 
	C1258.320190,79.802246 1254.025146,79.548851 1250.026123,80.311623 
	C1248.058350,80.686943 1245.191406,83.495132 1245.093872,85.328148 
	C1244.593750,94.721809 1244.862427,104.156403 1244.862427,113.725861 
	C1247.141968,113.725861 1249.035889,113.725861 1251.025513,113.725861 
	C1251.216187,110.327301 1251.391479,107.204086 1251.507202,104.056389 
	C1251.507202,104.056389 1251.463135,104.103333 1252.303833,104.211372 
M1223.534180,79.988426 
	C1215.283936,79.995651 1213.030029,80.992172 1212.892578,85.725662 
	C1212.623779,94.974579 1212.813599,104.236832 1212.813599,113.856644 
	C1218.734863,113.856644 1224.364746,114.249893 1229.912720,113.744392 
	C1235.297729,113.253738 1239.362061,108.120064 1239.849731,102.232437 
	C1240.027222,100.088097 1239.930908,97.919533 1239.927856,95.762062 
	C1239.911865,84.356712 1235.682129,80.049278 1223.534180,79.988426 
M1175.598267,114.021538 
	C1176.998535,113.910225 1178.398804,113.798912 1179.632935,113.700806 
	C1179.632935,102.208328 1179.632935,91.272835 1179.632935,80.207718 
	C1177.433960,80.207718 1175.512207,80.207718 1172.964600,80.207718 
	C1172.964600,84.974579 1172.964600,89.521477 1172.964600,93.920311 
	C1168.205688,94.250534 1164.079834,94.536842 1159.543457,94.851624 
	C1159.543457,90.126282 1159.543457,85.188293 1159.543457,80.252914 
	C1157.198486,80.252914 1155.278442,80.252914 1153.004517,80.252914 
	C1153.004517,85.989807 1153.004517,91.457619 1153.004517,96.925438 
	C1153.004517,102.537697 1153.004517,108.149963 1153.004517,113.735237 
	C1155.498169,113.735237 1157.412354,113.735237 1159.885498,113.735237 
	C1159.885498,109.071754 1159.885498,104.675613 1159.885498,100.285522 
	C1164.543335,100.285522 1168.632446,100.285522 1173.107666,100.285522 
	C1173.107666,103.334854 1172.921997,106.146278 1173.175659,108.917496 
	C1173.333496,110.641640 1174.156250,112.304901 1175.598267,114.021538 
M1146.377563,82.277138 
	C1141.202637,81.565659 1136.005737,80.179382 1130.859497,80.347252 
	C1126.405640,80.492531 1122.679932,83.225670 1121.891479,88.269463 
	C1121.069824,93.524193 1124.204956,96.306740 1128.564941,98.012276 
	C1131.647583,99.218163 1134.956543,99.881104 1137.959106,101.240143 
	C1139.393311,101.889305 1140.350342,103.592949 1141.523560,104.818954 
	C1140.034790,105.920563 1138.602905,107.848412 1137.045654,107.955605 
	C1133.566528,108.195122 1130.024780,107.526840 1125.349243,107.129967 
	C1124.800293,107.589180 1123.184082,108.941017 1121.488770,110.359047 
	C1127.314331,114.699501 1137.951782,115.431290 1143.533813,112.123390 
	C1149.964966,108.312309 1150.052856,100.691948 1143.550415,96.936226 
	C1141.144043,95.546318 1138.240723,95.031639 1135.784790,93.708420 
	C1133.265503,92.351173 1128.794189,89.985428 1129.032593,88.942337 
	C1130.074707,84.383469 1134.506470,86.080185 1137.791260,85.846237 
	C1138.576416,85.790321 1139.423828,86.087891 1140.189331,86.368179 
	C1143.757812,87.674698 1145.140991,86.973717 1146.377563,82.277138 
M1188.680054,113.086044 
	C1195.680908,113.523903 1202.681763,113.961754 1210.317139,114.439301 
	C1206.871826,103.652306 1198.001709,110.857132 1192.397461,107.183342 
	C1192.397461,98.520508 1192.397461,89.432922 1192.397461,80.238815 
	C1190.062744,80.238815 1188.150757,80.238815 1185.889404,80.238815 
	C1185.889404,89.749641 1185.799927,99.016922 1185.981812,108.278893 
	C1186.010498,109.741547 1187.265747,111.180122 1188.680054,113.086044 
z"/>
<path fill="#055DC2" opacity="1.000000" stroke="none" 
	d="
M625.773132,72.776237 
	C633.925598,64.562302 643.713135,61.842281 654.642639,61.851013 
	C719.617126,61.902935 784.592102,62.029076 849.565674,61.784439 
	C869.070557,61.711002 882.159729,73.085068 886.941956,86.437401 
	C895.997864,111.722336 879.837585,135.902924 852.837585,137.989441 
	C851.345154,138.104752 849.842102,138.118591 848.343994,138.118729 
	C784.035950,138.124756 719.727905,138.094971 655.419861,138.145020 
	C640.153564,138.156891 627.951111,132.625626 619.633972,119.424980 
	C611.623596,106.711311 612.253723,85.994972 625.773132,72.776237 
M821.303650,104.211182 
	C825.632812,103.370338 827.689636,106.471359 829.509094,109.362144 
	C832.263672,113.738640 835.880249,114.958954 841.174622,113.479393 
	C838.437073,110.098747 835.897217,106.962158 833.242126,103.683365 
	C839.637878,100.456963 841.677795,95.561852 840.748718,89.338448 
	C840.038391,84.580467 836.381409,80.813194 831.424072,80.260353 
	C827.320557,79.802719 823.025635,79.549011 819.026550,80.311707 
	C817.058777,80.687012 814.191589,83.494926 814.093994,85.327812 
	C813.593872,94.721466 813.862549,104.156052 813.862549,113.725746 
	C816.141785,113.725746 818.035645,113.725746 820.025269,113.725746 
	C820.216003,110.327225 820.391357,107.204048 820.507080,104.056412 
	C820.507080,104.056412 820.463013,104.103340 821.303650,104.211182 
M728.729126,81.923691 
	C726.706421,81.098190 724.683716,80.272690 722.352844,79.321419 
	C722.352844,91.739212 722.352844,102.806396 722.352844,114.075096 
	C724.625183,113.971161 726.537781,113.883675 728.806763,113.779892 
	C728.806763,109.040825 728.806763,104.774086 728.806763,100.343124 
	C733.413208,100.343124 737.630737,100.343124 742.360168,100.343124 
	C742.360168,105.052849 742.360168,109.446594 742.360168,113.680908 
	C744.791199,113.680908 746.701965,113.680908 748.542358,113.680908 
	C748.542358,102.280426 748.542358,91.226204 748.542358,80.309021 
	C746.256042,80.309021 744.340942,80.309021 741.970581,80.309021 
	C741.970581,85.053268 741.970581,89.475189 741.970581,93.928215 
	C737.354675,94.223404 733.192627,94.489563 728.744263,94.774033 
	C728.744263,91.141167 728.744263,86.993080 728.729126,81.923691 
M781.742859,99.500160 
	C781.742859,104.249878 781.742859,108.999588 781.742859,114.011429 
	C783.764893,114.011429 785.076660,114.014534 786.388428,114.010834 
	C790.054382,114.000481 793.729858,114.151367 797.384338,113.940361 
	C804.509277,113.528961 808.832153,108.097702 808.929199,99.713547 
	C809.081787,86.530884 805.884644,80.773705 797.799683,80.091339 
	C794.490051,79.812019 791.134888,79.922752 787.807251,80.043854 
	C784.064514,80.180054 781.938171,82.249710 781.812744,86.006653 
	C781.673828,90.168327 781.756531,94.337387 781.742859,99.500160 
M693.461731,107.009369 
	C692.171753,108.136963 690.881775,109.264557 689.130859,110.795059 
	C696.335510,114.890312 703.160583,114.967842 709.994568,112.834892 
	C713.676392,111.685768 716.140930,108.902596 716.287659,104.698296 
	C716.426880,100.709229 714.323120,98.078888 710.898865,96.491295 
	C708.502258,95.380165 705.839722,94.815598 703.506592,93.602036 
	C701.073120,92.336319 696.798218,90.273659 696.972534,89.101372 
	C697.637390,84.630745 701.958191,86.052650 705.099915,85.797096 
	C705.752869,85.743988 706.592896,85.658920 707.057617,85.991974 
	C711.020691,88.832146 713.202454,86.185211 715.678040,83.322456 
	C709.947632,78.963715 703.625854,79.379341 697.435852,80.620079 
	C693.323120,81.444435 690.278381,84.118546 689.813721,88.761185 
	C689.333496,93.558395 692.160706,96.208183 696.109619,97.827728 
	C699.324219,99.146118 702.806213,99.832199 705.970703,101.244331 
	C707.402405,101.883194 708.351501,103.603416 709.519531,104.833054 
	C708.026245,105.930511 706.541870,107.931221 705.037903,107.946083 
	C701.385376,107.982193 697.723816,107.095085 693.461731,107.009369 
M754.948303,108.893745 
	C756.548401,110.558037 758.030945,113.497368 759.769775,113.657784 
	C766.066650,114.238693 772.449646,113.886597 779.185120,113.886597 
	C775.756775,103.581718 766.815552,111.021774 761.228149,107.106461 
	C761.228149,98.365280 761.228149,89.302734 761.228149,80.324600 
	C758.876831,80.324600 756.979797,80.324600 754.863831,80.324600 
	C754.863831,89.772743 754.863831,98.887497 754.948303,108.893745 
M675.591064,114.011482 
	C679.650513,114.011482 683.710022,114.011482 688.458069,114.011482 
	C687.291565,111.877937 686.695679,109.391571 685.714417,109.228783 
	C680.771545,108.408798 675.728088,108.194839 670.336182,107.735466 
	C670.336182,98.465363 670.336182,89.381844 670.336182,80.263565 
	C668.012268,80.263565 666.103455,80.263565 663.893311,80.263565 
	C663.893311,89.796234 663.811523,99.059525 663.934875,108.320076 
	C663.982056,111.858658 666.203308,113.691933 669.659607,113.951462 
	C671.310852,114.075455 672.977112,113.997810 675.591064,114.011482 
z"/>
<path fill="#013400" opacity="1.000000" stroke="none" 
	d="
M1744.408447,267.459381 
	C1778.932251,289.083130 1787.207275,332.030701 1763.029297,362.745667 
	C1746.272339,384.033173 1717.494141,392.361969 1691.568970,383.427338 
	C1666.130249,374.660339 1649.274170,351.254791 1648.921021,324.207855 
	C1648.272461,274.554474 1698.618042,244.426331 1744.408447,267.459381 
M1706.986084,329.987579 
	C1706.986084,329.987579 1707.049683,330.041351 1707.040283,330.873444 
	C1708.930542,331.510071 1710.782593,332.324829 1712.720459,332.738953 
	C1715.230103,333.275208 1719.424805,332.699463 1720.058716,333.992493 
	C1722.101196,338.158783 1724.905518,336.975128 1728.589233,336.606873 
	C1725.124878,326.540283 1721.979126,316.745026 1718.261963,307.171722 
	C1717.552246,305.344025 1714.567261,303.305176 1712.669067,303.340729 
	C1710.762573,303.376495 1707.907837,305.498779 1707.189087,307.368195 
	C1703.506348,316.945251 1700.379028,326.735870 1697.029175,336.534912 
	C1703.628296,337.411835 1703.614868,337.406555 1705.732544,331.998047 
	C1706.018799,331.266693 1706.520630,330.619659 1706.986084,329.987579 
z"/>
<path fill="#021327" opacity="1.000000" stroke="none" 
	d="
M538.270386,592.356506 
	C501.648163,611.455933 458.915710,595.743896 446.263977,557.955811 
	C438.146515,533.710510 442.568665,511.147308 460.852509,492.474976 
	C479.384552,473.549164 502.072205,468.283508 526.826782,476.471802 
	C551.237305,484.546234 566.292053,502.275116 569.721008,527.950073 
	C573.432190,555.739075 562.255920,577.196045 538.270386,592.356506 
M543.965027,555.598755 
	C531.675293,536.288086 519.385559,516.977356 506.532532,496.781494 
	C493.025574,518.080811 480.043671,538.552063 466.700958,559.592407 
	C493.641113,559.592407 519.506287,559.592407 545.922302,559.592407 
	C545.285950,558.183350 544.838135,557.191711 543.965027,555.598755 
z"/>
<path fill="#340100" opacity="1.000000" stroke="none" 
	d="
M1821.668091,283.977203 
	C1792.412354,285.525482 1771.115112,273.289368 1758.113647,247.896408 
	C1743.890137,220.116516 1753.193237,186.439774 1779.228149,167.656906 
	C1803.359009,150.247452 1838.365234,153.000595 1859.974854,174.167801 
	C1878.307007,192.124863 1883.962646,213.962219 1876.966187,238.272385 
	C1870.240967,261.640564 1854.129395,276.359375 1830.489136,282.535614 
	C1827.765137,283.247284 1824.920654,283.498413 1821.668091,283.977203 
M1802.886719,218.502853 
	C1802.886719,223.579086 1802.886719,228.655319 1802.886719,233.980698 
	C1808.461304,233.980698 1813.267334,234.070450 1818.068359,233.954773 
	C1822.627319,233.844940 1826.770752,232.493271 1828.764648,228.000610 
	C1830.814941,223.380493 1828.855713,219.623291 1825.269653,216.626358 
	C1829.536987,208.187485 1827.732666,201.825165 1820.354736,200.454590 
	C1816.335083,199.707901 1811.947510,199.554123 1807.997437,200.400314 
	C1805.990479,200.830246 1803.622681,203.851517 1803.124756,206.082214 
	C1802.311279,209.726898 1802.893311,213.683060 1802.886719,218.502853 
z"/>
<path fill="#011233" opacity="1.000000" stroke="none" 
	d="
M1551.828369,192.968109 
	C1564.733521,166.866821 1590.221436,153.316956 1619.022339,156.983032 
	C1645.153687,160.309296 1666.886353,180.802200 1672.445557,207.358719 
	C1680.038208,243.627762 1655.563232,278.004700 1618.051636,283.759277 
	C1583.553711,289.051514 1549.644165,262.553619 1546.183350,227.353149 
	C1545.028809,215.611694 1546.415527,204.106110 1551.828369,192.968109 
M1601.712280,200.236450 
	C1599.615112,200.236450 1597.517944,200.236450 1594.802856,200.236450 
	C1597.558228,204.884186 1599.941406,209.223068 1602.646729,213.350876 
	C1604.333252,215.924332 1604.369263,217.962418 1602.582031,220.554977 
	C1599.741577,224.675400 1597.323730,229.087067 1594.744873,233.346237 
	C1599.907471,235.230240 1602.535767,233.326508 1604.435791,229.266174 
	C1605.809937,226.329605 1607.812378,223.687042 1609.498413,220.971786 
	C1615.486816,224.488876 1614.174927,236.114685 1625.381226,233.588867 
	C1623.036865,229.758804 1621.173706,226.050217 1618.686768,222.822083 
	C1615.647217,218.876633 1615.136353,215.500626 1618.422607,211.335938 
	C1621.001099,208.068359 1622.758789,204.153030 1624.867920,200.548065 
	C1619.670898,198.835190 1616.826660,200.650970 1614.971924,205.025864 
	C1613.772339,207.855011 1611.929199,210.411331 1610.001221,213.733200 
	C1607.142090,208.946472 1604.706909,204.869415 1601.712280,200.236450 
z"/>
<path fill="#021328" opacity="1.000000" stroke="none" 
	d="
M363.184204,590.145020 
	C402.553558,560.157349 457.189636,580.196045 466.424683,627.684143 
	C473.222168,662.637878 449.239471,697.245056 414.336365,702.847900 
	C378.401764,708.616333 344.862274,684.322815 340.288788,648.710510 
	C337.291687,625.372925 344.901581,605.758911 363.184204,590.145020 
M426.206818,642.500000 
	C426.206818,628.776184 426.206818,615.052307 426.206818,600.026245 
	C404.885040,613.581787 384.691742,626.419922 363.599243,639.829712 
	C384.943298,653.387146 405.175354,666.238281 426.207184,679.597412 
	C426.207184,666.777954 426.207184,655.138977 426.206818,642.500000 
z"/>
<path fill="#021327" opacity="1.000000" stroke="none" 
	d="
M663.216553,604.889526 
	C679.764893,631.665222 676.104126,663.969482 654.327209,685.345032 
	C633.018616,706.260864 600.411438,709.755310 575.274963,693.816772 
	C551.152771,678.521545 540.189392,649.317810 548.097229,621.422668 
	C555.570435,595.060974 580.878784,576.055237 608.920837,575.909302 
	C632.042297,575.788940 649.838989,585.874023 663.216553,604.889526 
M586.856750,638.500000 
	C586.856750,651.873901 586.856750,665.247864 586.856750,679.700623 
	C608.281555,666.078857 628.657532,653.123901 649.629333,639.790100 
	C628.473938,626.392395 608.121704,613.503296 586.856506,600.036011 
	C586.856506,613.549866 586.856506,625.524963 586.856750,638.500000 
z"/>
<path fill="#343400" opacity="1.000000" stroke="none" 
	d="
M1711.084473,181.082489 
	C1678.717041,180.325317 1651.018433,153.678757 1648.918091,122.845039 
	C1646.310059,84.556160 1674.941406,56.973331 1704.944214,53.756489 
	C1738.594238,50.148594 1768.409790,71.281044 1775.404541,104.284019 
	C1782.133301,136.031860 1763.215454,168.764877 1732.190063,178.155838 
	C1725.619873,180.144547 1718.454102,180.165588 1711.084473,181.082489 
M1698.433594,97.030266 
	C1698.811646,98.524155 1698.862915,100.213257 1699.620239,101.480637 
	C1705.002930,110.490120 1711.515991,119.061310 1709.898682,130.773834 
	C1711.833862,130.773834 1713.736938,130.773834 1716.121338,130.773834 
	C1716.121338,128.979584 1716.204834,127.356110 1716.105835,125.743820 
	C1715.795410,120.688438 1716.468994,116.181267 1719.859253,111.864594 
	C1723.248291,107.549538 1725.515259,102.353180 1728.243286,97.596939 
	C1723.221313,95.797035 1720.579834,97.637581 1718.667969,101.708389 
	C1717.145508,104.950287 1714.991455,107.895630 1712.829712,111.445808 
	C1710.479370,107.585228 1708.265747,104.478363 1706.619751,101.095390 
	C1705.010620,97.787872 1702.796387,96.306885 1698.433594,97.030266 
z"/>
<path fill="#021327" opacity="1.000000" stroke="none" 
	d="
M444.035370,756.687500 
	C438.211365,721.824768 456.154114,691.105713 487.559113,681.645142 
	C521.329285,671.471985 556.805359,689.820129 567.566895,723.024963 
	C578.239807,755.956238 560.288269,792.213501 527.379639,803.232788 
	C487.511871,816.582275 451.636597,790.586060 444.035370,756.687500 
M541.064758,728.561523 
	C542.688782,725.941711 544.312805,723.321899 546.148193,720.361084 
	C519.478027,720.361084 493.549957,720.361084 466.865448,720.361084 
	C480.197968,741.326172 493.109436,761.629150 506.577789,782.807861 
	C518.248047,764.429321 529.447632,746.792053 541.064758,728.561523 
z"/>
<path fill="#F8F8F8" opacity="1.000000" stroke="none" 
	d="
M769.881531,270.880859 
	C788.443420,279.374573 799.673584,292.950500 801.122864,313.385040 
	C802.586060,334.015228 793.834290,349.833954 776.133606,359.831512 
	C759.327271,369.323883 741.795288,368.785431 725.584778,358.048889 
	C709.119629,347.143585 701.190735,331.307343 703.687378,311.486481 
	C707.802979,278.812958 737.743042,260.541870 769.881531,270.880859 
M760.501953,347.126404 
	C767.832153,347.125916 775.162537,347.091827 782.492371,347.139191 
	C786.145325,347.162781 788.143066,345.529449 788.154175,341.805267 
	C788.179504,333.309052 788.174500,324.812622 788.154297,316.316376 
	C788.146057,312.857208 786.385803,311.148529 782.901123,311.153412 
	C770.573120,311.170654 758.245056,311.182495 745.917175,311.148987 
	C742.161865,311.138794 740.429749,313.019104 740.424194,316.654999 
	C740.411438,324.984711 740.391907,333.314575 740.431519,341.644104 
	C740.448792,345.277283 742.316895,347.145233 746.009155,347.129639 
	C750.507141,347.110626 755.005249,347.126007 760.501953,347.126404 
M716.324524,303.513580 
	C716.325439,308.177887 716.318298,312.842224 716.329773,317.506500 
	C716.338806,321.160645 718.171204,323.025482 721.841003,323.041229 
	C723.804504,323.049652 725.768066,323.042725 727.908997,323.042725 
	C727.908997,320.906921 727.908997,319.197388 727.908997,317.346405 
	C726.020874,317.131775 724.422119,316.950043 722.660278,316.749786 
	C722.660278,308.922760 722.660278,301.340179 722.660278,293.451050 
	C733.502197,293.451050 744.074158,293.451050 754.756714,293.451050 
	C755.061401,295.407104 755.332520,297.148010 755.591736,298.812622 
	C757.609192,298.812622 759.345032,298.812622 761.398438,298.812622 
	C761.398438,296.661530 761.414307,294.847137 761.395142,293.033112 
	C761.354980,289.224548 759.510620,287.146301 755.611633,287.141968 
	C744.450623,287.129517 733.289490,287.121490 722.128540,287.145660 
	C718.263977,287.154022 716.346802,289.189484 716.328735,293.028290 
	C716.313843,296.193298 716.325073,299.358429 716.324524,303.513580 
z"/>
<path fill="#F9F9F8" opacity="1.000000" stroke="none" 
	d="
M1172.871582,268.659485 
	C1200.038208,264.105469 1226.026001,282.425476 1229.880737,308.453217 
	C1234.077026,336.787628 1215.586670,361.997559 1187.802979,365.822266 
	C1162.631226,369.287445 1136.864502,350.601410 1133.084717,326.140717 
	C1128.769165,298.212402 1146.016602,273.063354 1172.871582,268.659485 
M1185.500000,313.987946 
	C1175.262695,313.987946 1165.025391,313.987946 1154.417603,313.987946 
	C1154.530029,316.299438 1154.607178,317.883942 1154.688110,319.547668 
	C1172.742432,319.547668 1190.405884,319.547668 1208.135254,319.547668 
	C1208.135254,317.596680 1208.135254,316.007812 1208.135254,313.987671 
	C1200.724365,313.987671 1193.612183,313.987671 1185.500000,313.987946 
M1198.470947,298.991211 
	C1183.902588,298.991211 1169.334229,298.991211 1154.396729,298.991211 
	C1154.562744,301.394714 1154.680664,303.101868 1154.783691,304.593414 
	C1172.951782,304.593414 1190.498291,304.593414 1208.091797,304.593414 
	C1208.091797,302.615173 1208.091797,301.016174 1208.091797,298.991211 
	C1205.062866,298.991211 1202.262817,298.991211 1198.470947,298.991211 
M1170.502930,334.975372 
	C1182.948120,334.975372 1195.393433,334.975372 1208.048828,334.975372 
	C1208.048828,332.796326 1208.048828,331.073334 1208.048828,329.112946 
	C1190.217896,329.112946 1172.669556,329.112946 1154.847900,329.112946 
	C1154.847900,331.104279 1154.847900,332.824127 1154.847900,334.975372 
	C1159.911987,334.975372 1164.708130,334.975372 1170.502930,334.975372 
z"/>
<path fill="#357DCD" opacity="1.000000" stroke="none" 
	d="
M1554.059082,624.014404 
	C1553.836670,663.254333 1524.969849,693.668396 1486.324951,695.866760 
	C1446.421997,698.136658 1412.679688,665.782410 1411.766479,625.689575 
	C1411.026611,593.210815 1434.322021,561.973389 1467.807251,554.923584 
	C1509.250000,546.198547 1545.804688,573.634338 1552.958740,611.134338 
	C1553.731934,615.187866 1553.710815,619.392944 1554.059082,624.014404 
z"/>
<path fill="#357DCE" opacity="1.000000" stroke="none" 
	d="
M305.835205,220.350342 
	C313.275635,262.714874 289.254913,299.251282 248.319397,306.297455 
	C206.786667,313.446472 171.930252,284.937408 165.846268,247.480591 
	C159.766159,210.047516 184.218903,170.663162 228.103210,165.331406 
	C263.593170,161.019501 296.844330,183.502899 305.835205,220.350342 
z"/>
<path fill="#F8FAFD" opacity="1.000000" stroke="none" 
	d="
M1251.566895,104.080864 
	C1251.391479,107.204086 1251.216187,110.327301 1251.025513,113.725861 
	C1249.035889,113.725861 1247.141968,113.725861 1244.862427,113.725861 
	C1244.862427,104.156403 1244.593750,94.721809 1245.093872,85.328148 
	C1245.191406,83.495132 1248.058350,80.686943 1250.026123,80.311623 
	C1254.025146,79.548851 1258.320190,79.802246 1262.423706,80.260185 
	C1267.387695,80.814186 1271.037476,84.573586 1271.748901,89.337967 
	C1272.678101,95.561180 1270.638550,100.456680 1264.242432,103.683395 
	C1266.897339,106.962181 1269.437134,110.098755 1272.174927,113.479744 
	C1266.880859,114.958534 1263.263916,113.739372 1260.509155,109.362656 
	C1258.689697,106.471992 1256.633301,103.370316 1252.073364,103.821777 
	C1253.733887,100.973740 1254.485229,97.403908 1259.061279,98.026665 
	C1263.012817,98.564415 1265.142456,96.211090 1265.218384,92.096268 
	C1265.299072,87.727966 1263.182373,85.691673 1258.895752,85.717842 
	C1256.479370,85.732597 1254.062744,85.720505 1251.566772,85.720505 
	C1251.566772,92.270149 1251.566772,98.175507 1251.566895,104.080864 
z"/>
<path fill="#F8FAFD" opacity="1.000000" stroke="none" 
	d="
M1097.566650,104.080856 
	C1097.391357,107.204079 1097.216064,110.327293 1097.025391,113.725861 
	C1095.035889,113.725861 1093.141968,113.725861 1090.862427,113.725861 
	C1090.862427,104.156403 1090.593750,94.721809 1091.093994,85.328156 
	C1091.191528,83.495110 1094.058228,80.686974 1096.026123,80.311623 
	C1100.025146,79.548874 1104.320190,79.802238 1108.423706,80.260185 
	C1113.387695,80.814178 1117.037476,84.573593 1117.748901,89.337959 
	C1118.678223,95.561180 1116.638550,100.456680 1110.242554,103.683296 
	C1112.897583,106.962029 1115.437378,110.098587 1118.175171,113.479660 
	C1112.880859,114.958534 1109.263916,113.739372 1106.509155,109.362656 
	C1104.689697,106.471992 1102.633301,103.370316 1098.073364,103.821777 
	C1099.733887,100.973740 1100.485229,97.403908 1105.061279,98.026665 
	C1109.012817,98.564430 1111.142456,96.211090 1111.218384,92.096268 
	C1111.299072,87.727966 1109.182373,85.691673 1104.895752,85.717842 
	C1102.479370,85.732597 1100.062744,85.720505 1097.566772,85.720505 
	C1097.566772,92.270149 1097.566772,98.175507 1097.566650,104.080856 
z"/>
<path fill="#F8FAFD" opacity="1.000000" stroke="none" 
	d="
M1223.994629,79.988449 
	C1235.682129,80.049278 1239.911865,84.356712 1239.927856,95.762062 
	C1239.930908,97.919533 1240.027222,100.088097 1239.849731,102.232437 
	C1239.362061,108.120064 1235.297729,113.253738 1229.912720,113.744392 
	C1224.364746,114.249893 1218.734863,113.856644 1212.813599,113.856644 
	C1212.813599,104.236832 1212.623779,94.974579 1212.892578,85.725662 
	C1213.030029,80.992172 1215.283936,79.995651 1223.994629,79.988449 
M1233.160767,92.886917 
	C1231.992065,85.896965 1229.744629,84.766724 1219.531982,86.218948 
	C1219.531982,93.366226 1219.531982,100.555832 1219.531982,107.706314 
	C1230.864014,109.667953 1233.187012,107.768784 1233.190674,96.769524 
	C1233.191040,95.776955 1233.187988,94.784386 1233.160767,92.886917 
z"/>
<path fill="#F1F6FB" opacity="1.000000" stroke="none" 
	d="
M1175.139404,114.008514 
	C1174.156250,112.304901 1173.333496,110.641640 1173.175659,108.917496 
	C1172.921997,106.146278 1173.107666,103.334854 1173.107666,100.285522 
	C1168.632446,100.285522 1164.543335,100.285522 1159.885498,100.285522 
	C1159.885498,104.675613 1159.885498,109.071754 1159.885498,113.735237 
	C1157.412354,113.735237 1155.498169,113.735237 1153.004517,113.735237 
	C1153.004517,108.149963 1153.004517,102.537697 1153.004517,96.925438 
	C1153.004517,91.457619 1153.004517,85.989807 1153.004517,80.252914 
	C1155.278442,80.252914 1157.198486,80.252914 1159.543457,80.252914 
	C1159.543457,85.188293 1159.543457,90.126282 1159.543457,94.851624 
	C1164.079834,94.536842 1168.205688,94.250534 1172.964600,93.920311 
	C1172.964600,89.521477 1172.964600,84.974579 1172.964600,80.207718 
	C1175.512207,80.207718 1177.433960,80.207718 1179.632935,80.207718 
	C1179.632935,91.272835 1179.632935,102.208328 1179.632935,113.700806 
	C1178.398804,113.798912 1176.998535,113.910225 1175.139404,114.008514 
z"/>
<path fill="#F2F7FC" opacity="1.000000" stroke="none" 
	d="
M1146.674561,82.562210 
	C1145.140991,86.973717 1143.757812,87.674698 1140.189331,86.368179 
	C1139.423828,86.087891 1138.576416,85.790321 1137.791260,85.846237 
	C1134.506470,86.080185 1130.074707,84.383469 1129.032593,88.942337 
	C1128.794189,89.985428 1133.265503,92.351173 1135.784790,93.708420 
	C1138.240723,95.031639 1141.144043,95.546318 1143.550415,96.936226 
	C1150.052856,100.691948 1149.964966,108.312309 1143.533813,112.123390 
	C1137.951782,115.431290 1127.314331,114.699501 1121.488770,110.359047 
	C1123.184082,108.941017 1124.800293,107.589180 1125.349243,107.129967 
	C1130.024780,107.526840 1133.566528,108.195122 1137.045654,107.955605 
	C1138.602905,107.848412 1140.034790,105.920563 1141.523560,104.818970 
	C1140.350342,103.592949 1139.393311,101.889305 1137.959106,101.240143 
	C1134.956543,99.881104 1131.647583,99.218163 1128.564941,98.012276 
	C1124.204956,96.306740 1121.069824,93.524193 1121.891479,88.269463 
	C1122.679932,83.225670 1126.405640,80.492531 1130.859497,80.347252 
	C1136.005737,80.179382 1141.202637,81.565659 1146.674561,82.562210 
z"/>
<path fill="#F8FAFD" opacity="1.000000" stroke="none" 
	d="
M1188.317017,112.857941 
	C1187.265747,111.180122 1186.010498,109.741547 1185.981812,108.278893 
	C1185.799927,99.016922 1185.889404,89.749641 1185.889404,80.238815 
	C1188.150757,80.238815 1190.062744,80.238815 1192.397461,80.238815 
	C1192.397461,89.432922 1192.397461,98.520508 1192.397461,107.183342 
	C1198.001709,110.857132 1206.871826,103.652306 1210.317139,114.439301 
	C1202.681763,113.961754 1195.680908,113.523903 1188.317017,112.857941 
z"/>
<path fill="#1668C6" opacity="1.000000" stroke="none" 
	d="
M1251.536987,104.068626 
	C1251.566772,98.175507 1251.566772,92.270149 1251.566772,85.720505 
	C1254.062744,85.720505 1256.479370,85.732597 1258.895752,85.717842 
	C1263.182373,85.691673 1265.299072,87.727966 1265.218384,92.096268 
	C1265.142456,96.211090 1263.012817,98.564415 1259.061279,98.026665 
	C1254.485229,97.403908 1253.733887,100.973740 1251.653076,103.767761 
	C1251.463135,104.103333 1251.507202,104.056389 1251.536987,104.068626 
z"/>
<path fill="#1668C6" opacity="1.000000" stroke="none" 
	d="
M1097.536987,104.068626 
	C1097.566772,98.175507 1097.566772,92.270149 1097.566772,85.720505 
	C1100.062744,85.720505 1102.479370,85.732597 1104.895752,85.717842 
	C1109.182373,85.691673 1111.299072,87.727966 1111.218384,92.096268 
	C1111.142456,96.211090 1109.012817,98.564430 1105.061279,98.026665 
	C1100.485229,97.403908 1099.733887,100.973740 1097.653076,103.767761 
	C1097.463135,104.103333 1097.507202,104.056389 1097.536987,104.068626 
z"/>
<path fill="#F8FAFD" opacity="1.000000" stroke="none" 
	d="
M820.566650,104.080872 
	C820.391357,107.204048 820.216003,110.327225 820.025269,113.725746 
	C818.035645,113.725746 816.141785,113.725746 813.862549,113.725746 
	C813.862549,104.156052 813.593872,94.721466 814.093994,85.327812 
	C814.191589,83.494926 817.058777,80.687012 819.026550,80.311707 
	C823.025635,79.549011 827.320557,79.802719 831.424072,80.260353 
	C836.381409,80.813194 840.038391,84.580467 840.748718,89.338448 
	C841.677795,95.561852 839.637878,100.456963 833.242126,103.683365 
	C835.897217,106.962158 838.437073,110.098747 841.174622,113.479393 
	C835.880249,114.958954 832.263672,113.738640 829.509094,109.362144 
	C827.689636,106.471359 825.632812,103.370338 821.073242,103.821693 
	C822.734131,100.974152 823.484680,97.403542 828.061218,98.026634 
	C832.012817,98.564636 834.142395,96.211128 834.218384,92.096283 
	C834.299072,87.728058 832.182495,85.691666 827.895813,85.717842 
	C825.479370,85.732597 823.062805,85.720497 820.566650,85.720497 
	C820.566650,92.270096 820.566650,98.175484 820.566650,104.080872 
z"/>
<path fill="#F1F6FB" opacity="1.000000" stroke="none" 
	d="
M728.736694,82.384338 
	C728.744263,86.993080 728.744263,91.141167 728.744263,94.774033 
	C733.192627,94.489563 737.354675,94.223404 741.970581,93.928215 
	C741.970581,89.475189 741.970581,85.053268 741.970581,80.309021 
	C744.340942,80.309021 746.256042,80.309021 748.542358,80.309021 
	C748.542358,91.226204 748.542358,102.280426 748.542358,113.680908 
	C746.701965,113.680908 744.791199,113.680908 742.360168,113.680908 
	C742.360168,109.446594 742.360168,105.052849 742.360168,100.343124 
	C737.630737,100.343124 733.413208,100.343124 728.806763,100.343124 
	C728.806763,104.774086 728.806763,109.040825 728.806763,113.779892 
	C726.537781,113.883675 724.625183,113.971161 722.352844,114.075096 
	C722.352844,102.806396 722.352844,91.739212 722.352844,79.321419 
	C724.683716,80.272690 726.706421,81.098190 728.736694,82.384338 
z"/>
<path fill="#F8FAFD" opacity="1.000000" stroke="none" 
	d="
M781.742798,99.001694 
	C781.756531,94.337387 781.673828,90.168327 781.812744,86.006653 
	C781.938171,82.249710 784.064514,80.180054 787.807251,80.043854 
	C791.134888,79.922752 794.490051,79.812019 797.799683,80.091339 
	C805.884644,80.773705 809.081787,86.530884 808.929199,99.713547 
	C808.832153,108.097702 804.509277,113.528961 797.384338,113.940361 
	C793.729858,114.151367 790.054382,114.000481 786.388428,114.010834 
	C785.076660,114.014534 783.764893,114.011429 781.742859,114.011429 
	C781.742859,108.999588 781.742859,104.249878 781.742798,99.001694 
M788.243713,98.469543 
	C788.243713,101.589600 788.243713,104.709663 788.243713,108.435509 
	C793.019470,107.566826 799.135986,110.625481 800.705444,105.212929 
	C802.245850,99.900490 802.091675,93.196106 800.157166,88.051826 
	C798.508545,83.668144 792.684509,85.956772 788.243774,86.135101 
	C788.243774,90.207329 788.243774,93.849342 788.243713,98.469543 
z"/>
<path fill="#F2F7FC" opacity="1.000000" stroke="none" 
	d="
M693.763794,106.794647 
	C697.723816,107.095085 701.385376,107.982193 705.037903,107.946083 
	C706.541870,107.931221 708.026245,105.930511 709.519531,104.833054 
	C708.351501,103.603416 707.402405,101.883194 705.970703,101.244331 
	C702.806213,99.832199 699.324219,99.146118 696.109619,97.827728 
	C692.160706,96.208183 689.333496,93.558395 689.813721,88.761185 
	C690.278381,84.118546 693.323120,81.444435 697.435852,80.620079 
	C703.625854,79.379341 709.947632,78.963715 715.678040,83.322456 
	C713.202454,86.185211 711.020691,88.832146 707.057617,85.991974 
	C706.592896,85.658920 705.752869,85.743988 705.099915,85.797096 
	C701.958191,86.052650 697.637390,84.630745 696.972534,89.101372 
	C696.798218,90.273659 701.073120,92.336319 703.506592,93.602036 
	C705.839722,94.815598 708.502258,95.380165 710.898865,96.491295 
	C714.323120,98.078888 716.426880,100.709229 716.287659,104.698296 
	C716.140930,108.902596 713.676392,111.685768 709.994568,112.834892 
	C703.160583,114.967842 696.335510,114.890312 689.130859,110.795059 
	C690.881775,109.264557 692.171753,108.136963 693.763794,106.794647 
z"/>
<path fill="#F8FAFD" opacity="1.000000" stroke="none" 
	d="
M754.906067,108.447998 
	C754.863831,98.887497 754.863831,89.772743 754.863831,80.324600 
	C756.979797,80.324600 758.876831,80.324600 761.228149,80.324600 
	C761.228149,89.302734 761.228149,98.365280 761.228149,107.106461 
	C766.815552,111.021774 775.756775,103.581718 779.185120,113.886597 
	C772.449646,113.886597 766.066650,114.238693 759.769775,113.657784 
	C758.030945,113.497368 756.548401,110.558037 754.906067,108.447998 
z"/>
<path fill="#F8FAFD" opacity="1.000000" stroke="none" 
	d="
M675.113831,114.011482 
	C672.977112,113.997810 671.310852,114.075455 669.659607,113.951462 
	C666.203308,113.691933 663.982056,111.858658 663.934875,108.320076 
	C663.811523,99.059525 663.893311,89.796234 663.893311,80.263565 
	C666.103455,80.263565 668.012268,80.263565 670.336182,80.263565 
	C670.336182,89.381844 670.336182,98.465363 670.336182,107.735466 
	C675.728088,108.194839 680.771545,108.408798 685.714417,109.228783 
	C686.695679,109.391571 687.291565,111.877937 688.458069,114.011482 
	C683.710022,114.011482 679.650513,114.011482 675.113831,114.011482 
z"/>
<path fill="#1668C6" opacity="1.000000" stroke="none" 
	d="
M820.536865,104.068642 
	C820.566650,98.175484 820.566650,92.270096 820.566650,85.720497 
	C823.062805,85.720497 825.479370,85.732597 827.895813,85.717842 
	C832.182495,85.691666 834.299072,87.728058 834.218384,92.096283 
	C834.142395,96.211128 832.012817,98.564636 828.061218,98.026634 
	C823.484680,97.403542 822.734131,100.974152 820.652954,103.767776 
	C820.463013,104.103340 820.507080,104.056412 820.536865,104.068642 
z"/>
<path fill="#31F631" opacity="1.000000" stroke="none" 
	d="
M1706.922729,329.933563 
	C1706.520630,330.619659 1706.018799,331.266693 1705.732544,331.998047 
	C1703.614868,337.406555 1703.628296,337.411835 1697.029175,336.534912 
	C1700.379028,326.735870 1703.506348,316.945251 1707.189087,307.368195 
	C1707.907837,305.498779 1710.762573,303.376495 1712.669067,303.340729 
	C1714.567261,303.305176 1717.552246,305.344025 1718.261963,307.171722 
	C1721.979126,316.745026 1725.124878,326.540283 1728.589233,336.606873 
	C1724.905518,336.975128 1722.101196,338.158783 1720.058716,333.992493 
	C1719.424805,332.699463 1715.230103,333.275208 1712.720459,332.738953 
	C1710.782593,332.324829 1708.930542,331.510071 1707.389404,330.316010 
	C1709.801392,324.996124 1714.524902,328.081238 1717.938843,326.374512 
	C1716.307373,321.465424 1714.699585,316.627289 1713.091675,311.789185 
	C1712.736572,311.836456 1712.381348,311.883728 1712.026245,311.931000 
	C1710.325073,317.931854 1708.623901,323.932709 1706.922729,329.933563 
z"/>
<path fill="#035BBF" opacity="1.000000" stroke="none" 
	d="
M544.177673,555.899414 
	C544.838135,557.191711 545.285950,558.183350 545.922302,559.592407 
	C519.506287,559.592407 493.641113,559.592407 466.700958,559.592407 
	C480.043671,538.552063 493.025574,518.080811 506.532532,496.781494 
	C519.385559,516.977356 531.675293,536.288086 544.177673,555.899414 
z"/>
<path fill="#FA3232" opacity="1.000000" stroke="none" 
	d="
M1802.886719,218.005341 
	C1802.893311,213.683060 1802.311279,209.726898 1803.124756,206.082214 
	C1803.622681,203.851517 1805.990479,200.830246 1807.997437,200.400314 
	C1811.947510,199.554123 1816.335083,199.707901 1820.354736,200.454590 
	C1827.732666,201.825165 1829.536987,208.187485 1825.269653,216.626358 
	C1828.855713,219.623291 1830.814941,223.380493 1828.764648,228.000610 
	C1826.770752,232.493271 1822.627319,233.844940 1818.068359,233.954773 
	C1813.267334,234.070450 1808.461304,233.980698 1802.886719,233.980698 
	C1802.886719,228.655319 1802.886719,223.579086 1802.886719,218.005341 
M1816.442749,214.020599 
	C1819.919678,214.109787 1821.965210,212.486420 1821.526733,208.945862 
	C1821.091919,205.435654 1816.182495,204.353256 1809.404053,206.072372 
	C1809.404053,213.439789 1809.404053,220.818436 1809.404053,228.854462 
	C1813.018921,228.587845 1816.371216,228.738464 1819.477295,227.936310 
	C1820.933838,227.560181 1822.868652,225.332016 1822.847168,223.970795 
	C1822.825317,222.592590 1820.891113,220.563171 1819.374512,220.042389 
	C1816.801025,219.158646 1813.897461,219.235580 1811.132690,218.908752 
	C1810.873779,218.470886 1810.614990,218.033035 1810.356079,217.595184 
	C1812.113403,216.404877 1813.870605,215.214584 1816.442749,214.020599 
z"/>
<path fill="#3173F8" opacity="1.000000" stroke="none" 
	d="
M1601.991943,200.514404 
	C1604.706909,204.869415 1607.142090,208.946472 1610.001221,213.733200 
	C1611.929199,210.411331 1613.772339,207.855011 1614.971924,205.025864 
	C1616.826660,200.650970 1619.670898,198.835190 1624.867920,200.548065 
	C1622.758789,204.153030 1621.001099,208.068359 1618.422607,211.335938 
	C1615.136353,215.500626 1615.647217,218.876633 1618.686768,222.822083 
	C1621.173706,226.050217 1623.036865,229.758804 1625.381226,233.588867 
	C1614.174927,236.114685 1615.486816,224.488876 1609.498413,220.971786 
	C1607.812378,223.687042 1605.809937,226.329605 1604.435791,229.266174 
	C1602.535767,233.326508 1599.907471,235.230240 1594.744873,233.346237 
	C1597.323730,229.087067 1599.741577,224.675400 1602.582031,220.554977 
	C1604.369263,217.962418 1604.333252,215.924332 1602.646729,213.350876 
	C1599.941406,209.223068 1597.558228,204.884186 1594.802856,200.236450 
	C1597.517944,200.236450 1599.615112,200.236450 1601.991943,200.514404 
z"/>
<path fill="#035BC0" opacity="1.000000" stroke="none" 
	d="
M426.207001,643.000000 
	C426.207184,655.138977 426.207184,666.777954 426.207184,679.597412 
	C405.175354,666.238281 384.943298,653.387146 363.599243,639.829712 
	C384.691742,626.419922 404.885040,613.581787 426.206818,600.026245 
	C426.206818,615.052307 426.206818,628.776184 426.207001,643.000000 
z"/>
<path fill="#035BC0" opacity="1.000000" stroke="none" 
	d="
M586.856628,638.000000 
	C586.856506,625.524963 586.856506,613.549866 586.856506,600.036011 
	C608.121704,613.503296 628.473938,626.392395 649.629333,639.790100 
	C628.657532,653.123901 608.281555,666.078857 586.856750,679.700623 
	C586.856750,665.247864 586.856750,651.873901 586.856628,638.000000 
z"/>
<path fill="#F8F831" opacity="1.000000" stroke="none" 
	d="
M1698.807373,97.011017 
	C1702.796387,96.306885 1705.010620,97.787872 1706.619751,101.095390 
	C1708.265747,104.478363 1710.479370,107.585228 1712.829712,111.445808 
	C1714.991455,107.895630 1717.145508,104.950287 1718.667969,101.708389 
	C1720.579834,97.637581 1723.221313,95.797035 1728.243286,97.596939 
	C1725.515259,102.353180 1723.248291,107.549538 1719.859253,111.864594 
	C1716.468994,116.181267 1715.795410,120.688438 1716.105835,125.743820 
	C1716.204834,127.356110 1716.121338,128.979584 1716.121338,130.773834 
	C1713.736938,130.773834 1711.833862,130.773834 1709.898682,130.773834 
	C1711.515991,119.061310 1705.002930,110.490120 1699.620239,101.480637 
	C1698.862915,100.213257 1698.811646,98.524155 1698.807373,97.011017 
z"/>
<path fill="#035BC0" opacity="1.000000" stroke="none" 
	d="
M540.855957,728.858154 
	C529.447632,746.792053 518.248047,764.429321 506.577789,782.807861 
	C493.109436,761.629150 480.197968,741.326172 466.865448,720.361084 
	C493.549957,720.361084 519.478027,720.361084 546.148193,720.361084 
	C544.312805,723.321899 542.688782,725.941711 540.855957,728.858154 
z"/>
<path fill="#1064C5" opacity="1.000000" stroke="none" 
	d="
M760.002625,347.126434 
	C755.005249,347.126007 750.507141,347.110626 746.009155,347.129639 
	C742.316895,347.145233 740.448792,345.277283 740.431519,341.644104 
	C740.391907,333.314575 740.411438,324.984711 740.424194,316.654999 
	C740.429749,313.019104 742.161865,311.138794 745.917175,311.148987 
	C758.245056,311.182495 770.573120,311.170654 782.901123,311.153412 
	C786.385803,311.148529 788.146057,312.857208 788.154297,316.316376 
	C788.174500,324.812622 788.179504,333.309052 788.154175,341.805267 
	C788.143066,345.529449 786.145325,347.162781 782.492371,347.139191 
	C775.162537,347.091827 767.832153,347.125916 760.002625,347.126434 
M776.415283,340.981628 
	C778.314880,340.981628 780.214478,340.981628 781.951050,340.981628 
	C781.951050,332.632385 781.951050,325.076385 781.951050,317.489197 
	C769.919434,317.489197 758.243408,317.489197 746.436401,317.489197 
	C746.436401,325.402283 746.436401,332.956573 746.436401,340.981628 
	C756.267761,340.981628 765.851379,340.981628 776.415283,340.981628 
z"/>
<path fill="#1266C5" opacity="1.000000" stroke="none" 
	d="
M716.324585,303.018555 
	C716.325073,299.358429 716.313843,296.193298 716.328735,293.028290 
	C716.346802,289.189484 718.263977,287.154022 722.128540,287.145660 
	C733.289490,287.121490 744.450623,287.129517 755.611633,287.141968 
	C759.510620,287.146301 761.354980,289.224548 761.395142,293.033112 
	C761.414307,294.847137 761.398438,296.661530 761.398438,298.812622 
	C759.345032,298.812622 757.609192,298.812622 755.591736,298.812622 
	C755.332520,297.148010 755.061401,295.407104 754.756714,293.451050 
	C744.074158,293.451050 733.502197,293.451050 722.660278,293.451050 
	C722.660278,301.340179 722.660278,308.922760 722.660278,316.749786 
	C724.422119,316.950043 726.020874,317.131775 727.908997,317.346405 
	C727.908997,319.197388 727.908997,320.906921 727.908997,323.042725 
	C725.768066,323.042725 723.804504,323.049652 721.841003,323.041229 
	C718.171204,323.025482 716.338806,321.160645 716.329773,317.506500 
	C716.318298,312.842224 716.325439,308.177887 716.324585,303.018555 
z"/>
<path fill="#1266C5" opacity="1.000000" stroke="none" 
	d="
M1186.000000,313.987793 
	C1193.612183,313.987671 1200.724365,313.987671 1208.135254,313.987671 
	C1208.135254,316.007812 1208.135254,317.596680 1208.135254,319.547668 
	C1190.405884,319.547668 1172.742432,319.547668 1154.688110,319.547668 
	C1154.607178,317.883942 1154.530029,316.299438 1154.417603,313.987946 
	C1165.025391,313.987946 1175.262695,313.987946 1186.000000,313.987793 
z"/>
<path fill="#0960C3" opacity="1.000000" stroke="none" 
	d="
M1198.966797,298.991211 
	C1202.262817,298.991211 1205.062866,298.991211 1208.091797,298.991211 
	C1208.091797,301.016174 1208.091797,302.615173 1208.091797,304.593414 
	C1190.498291,304.593414 1172.951782,304.593414 1154.783691,304.593414 
	C1154.680664,303.101868 1154.562744,301.394714 1154.396729,298.991211 
	C1169.334229,298.991211 1183.902588,298.991211 1198.966797,298.991211 
z"/>
<path fill="#0960C3" opacity="1.000000" stroke="none" 
	d="
M1170.003540,334.975372 
	C1164.708130,334.975372 1159.911987,334.975372 1154.847900,334.975372 
	C1154.847900,332.824127 1154.847900,331.104279 1154.847900,329.112946 
	C1172.669556,329.112946 1190.217896,329.112946 1208.048828,329.112946 
	C1208.048828,331.073334 1208.048828,332.796326 1208.048828,334.975372 
	C1195.393433,334.975372 1182.948120,334.975372 1170.003540,334.975372 
z"/>
<path fill="#0960C3" opacity="1.000000" stroke="none" 
	d="
M1233.173584,93.339371 
	C1233.187988,94.784386 1233.191040,95.776955 1233.190674,96.769524 
	C1233.187012,107.768784 1230.864014,109.667953 1219.531982,107.706314 
	C1219.531982,100.555832 1219.531982,93.366226 1219.531982,86.218948 
	C1229.744629,84.766724 1231.992065,85.896965 1233.173584,93.339371 
z"/>
<path fill="#0960C3" opacity="1.000000" stroke="none" 
	d="
M788.243774,97.980453 
	C788.243774,93.849342 788.243774,90.207329 788.243774,86.135101 
	C792.684509,85.956772 798.508545,83.668144 800.157166,88.051826 
	C802.091675,93.196106 802.245850,99.900490 800.705444,105.212929 
	C799.135986,110.625481 793.019470,107.566826 788.243713,108.435509 
	C788.243713,104.709663 788.243713,101.589600 788.243774,97.980453 
z"/>
<path fill="#013400" opacity="1.000000" stroke="none" 
	d="
M1706.954346,329.960571 
	C1708.623901,323.932709 1710.325073,317.931854 1712.026245,311.931000 
	C1712.381348,311.883728 1712.736572,311.836456 1713.091675,311.789185 
	C1714.699585,316.627289 1716.307373,321.465424 1717.938843,326.374512 
	C1714.524902,328.081238 1709.801392,324.996124 1707.394165,329.899963 
	C1707.049683,330.041351 1706.986084,329.987579 1706.954346,329.960571 
z"/>
<path fill="#420404" opacity="1.000000" stroke="none" 
	d="
M1816.035278,214.022430 
	C1813.870605,215.214584 1812.113403,216.404877 1810.356079,217.595184 
	C1810.614990,218.033035 1810.873779,218.470886 1811.132690,218.908752 
	C1813.897461,219.235580 1816.801025,219.158646 1819.374512,220.042389 
	C1820.891113,220.563171 1822.825317,222.592590 1822.847168,223.970795 
	C1822.868652,225.332016 1820.933838,227.560181 1819.477295,227.936310 
	C1816.371216,228.738464 1813.018921,228.587845 1809.404053,228.854462 
	C1809.404053,220.818436 1809.404053,213.439789 1809.404053,206.072372 
	C1816.182495,204.353256 1821.091919,205.435654 1821.526733,208.945862 
	C1821.965210,212.486420 1819.919678,214.109787 1816.035278,214.022430 
z"/>
<path fill="#F6F8F9" opacity="1.000000" stroke="none" 
	d="
M775.925171,340.981628 
	C765.851379,340.981628 756.267761,340.981628 746.436401,340.981628 
	C746.436401,332.956573 746.436401,325.402283 746.436401,317.489197 
	C758.243408,317.489197 769.919434,317.489197 781.951050,317.489197 
	C781.951050,325.076385 781.951050,332.632385 781.951050,340.981628 
	C780.214478,340.981628 778.314880,340.981628 775.925171,340.981628 
z"/>
</svg>